<svg width="375" height="812" viewBox="0 0 375 812" fill="none" xmlns="http://www.w3.org/2000/svg">
<g clip-path="url(#clip0_73_562)">
<g opacity="0.3">
<path fill-rule="evenodd" clip-rule="evenodd" d="M277.75 198.5C295.009 198.5 309 184.509 309 167.25C309 149.991 295.009 136 277.75 136C260.491 136 246.5 149.991 246.5 167.25C246.5 184.509 260.491 198.5 277.75 198.5ZM277.75 189.125C289.831 189.125 299.625 179.331 299.625 167.25C299.625 155.169 289.831 145.375 277.75 145.375C265.669 145.375 255.875 155.169 255.875 167.25C255.875 179.331 265.669 189.125 277.75 189.125Z" fill="white"/>
<path d="M309 198.5C309 181.924 315.585 166.027 327.306 154.306C339.027 142.585 354.924 136 371.5 136L309 198.5C325.576 198.5 341.473 191.915 353.194 180.194C364.915 168.473 371.5 152.576 371.5 136" fill="#A79EED"/>
<path fill-rule="evenodd" clip-rule="evenodd" d="M199.625 229.75C208.254 229.75 215.25 222.754 215.25 214.125C215.25 205.496 208.254 198.5 199.625 198.5C190.996 198.5 184 205.496 184 214.125C184 222.754 190.996 229.75 199.625 229.75ZM199.625 225.063C205.666 225.063 210.563 220.166 210.563 214.125C210.563 208.084 205.666 203.188 199.625 203.188C193.584 203.188 188.688 208.084 188.688 214.125C188.688 220.166 193.584 225.063 199.625 225.063Z" fill="#A298EC"/>
<path d="M215.25 198.5C223.538 198.5 231.487 201.792 237.347 207.653C243.208 213.513 246.5 221.462 246.5 229.75L215.25 198.5C215.25 206.788 218.542 214.737 224.403 220.597C230.263 226.458 238.212 229.75 246.5 229.75" fill="#FDFCFF"/>
<path d="M184 229.75C192.288 229.75 200.237 233.042 206.097 238.903C211.958 244.763 215.25 252.712 215.25 261L184 229.75C184 238.038 187.292 245.987 193.153 251.847C199.013 257.708 206.962 261 215.25 261" fill="#B692FF"/>
<path fill-rule="evenodd" clip-rule="evenodd" d="M230.875 261C239.504 261 246.5 254.004 246.5 245.375C246.5 236.746 239.504 229.75 230.875 229.75C222.246 229.75 215.25 236.746 215.25 245.375C215.25 254.004 222.246 261 230.875 261ZM230.875 256.313C236.916 256.313 241.813 251.416 241.813 245.375C241.813 239.334 236.916 234.438 230.875 234.438C224.834 234.438 219.938 239.334 219.938 245.375C219.938 251.416 224.834 256.313 230.875 256.313Z" fill="#DFDCF8"/>
<path fill-rule="evenodd" clip-rule="evenodd" d="M277.75 261C295.009 261 309 247.009 309 229.75C309 212.491 295.009 198.5 277.75 198.5C260.491 198.5 246.5 212.491 246.5 229.75C246.5 247.009 260.491 261 277.75 261ZM277.75 251.625C289.831 251.625 299.625 241.831 299.625 229.75C299.625 217.669 289.831 207.875 277.75 207.875C265.669 207.875 255.875 217.669 255.875 229.75C255.875 241.831 265.669 251.625 277.75 251.625Z" fill="#FEFDFF"/>
<path d="M309 198.5C325.576 198.5 341.473 205.085 353.194 216.806C364.915 228.527 371.5 244.424 371.5 261L309 198.5C309 215.076 315.585 230.973 327.306 242.694C339.027 254.415 354.924 261 371.5 261" fill="#B5ADF0"/>
<path d="M371.5 229.75C371.5 225.646 372.308 221.583 373.879 217.791C375.449 214 377.751 210.555 380.653 207.653C383.555 204.751 387 202.449 390.791 200.879C394.583 199.308 398.646 198.5 402.75 198.5L371.5 229.75C379.788 229.75 387.737 226.458 393.597 220.597C399.458 214.737 402.75 206.788 402.75 198.5" fill="#CDB4FF"/>
<path d="M-3.5 323.5C-3.5 306.924 3.08479 291.027 14.8058 279.306C26.5268 267.585 42.424 261 59 261L-3.5 323.5C13.076 323.5 28.9732 316.915 40.6942 305.194C52.4152 293.473 59 277.576 59 261" fill="#FAF7FF"/>
<path fill-rule="evenodd" clip-rule="evenodd" d="M215.25 323.5C232.509 323.5 246.5 309.509 246.5 292.25C246.5 274.991 232.509 261 215.25 261C197.991 261 184 274.991 184 292.25C184 309.509 197.991 323.5 215.25 323.5ZM215.25 314.125C227.331 314.125 237.125 304.331 237.125 292.25C237.125 280.169 227.331 270.375 215.25 270.375C203.169 270.375 193.375 280.169 193.375 292.25C193.375 304.331 203.169 314.125 215.25 314.125Z" fill="#C4BDF3"/>
<path fill-rule="evenodd" clip-rule="evenodd" d="M340.25 323.5C357.509 323.5 371.5 309.509 371.5 292.25C371.5 274.991 357.509 261 340.25 261C322.991 261 309 274.991 309 292.25C309 309.509 322.991 323.5 340.25 323.5ZM340.25 314.125C352.331 314.125 362.125 304.331 362.125 292.25C362.125 280.169 352.331 270.375 340.25 270.375C328.169 270.375 318.375 280.169 318.375 292.25C318.375 304.331 328.169 314.125 340.25 314.125Z" fill="white"/>
<path d="M309 386C325.576 386 341.473 392.585 353.194 404.306C364.915 416.027 371.5 431.924 371.5 448.5L309 386C309 402.576 315.585 418.473 327.306 430.194C339.027 441.915 354.924 448.5 371.5 448.5" fill="#A89EED"/>
<path d="M371.5 386C388.076 386 403.973 392.585 415.694 404.306C427.415 416.027 434 431.924 434 448.5L371.5 386C371.5 402.576 378.085 418.473 389.806 430.194C401.527 441.915 417.424 448.5 434 448.5" fill="#9E94EB"/>
<path fill-rule="evenodd" clip-rule="evenodd" d="M90.25 511C107.509 511 121.5 497.009 121.5 479.75C121.5 462.491 107.509 448.5 90.25 448.5C72.9911 448.5 59 462.491 59 479.75C59 497.009 72.9911 511 90.25 511ZM90.25 501.625C102.331 501.625 112.125 491.831 112.125 479.75C112.125 467.669 102.331 457.875 90.25 457.875C78.1688 457.875 68.375 467.669 68.375 479.75C68.375 491.831 78.1688 501.625 90.25 501.625Z" fill="#988DEA"/>
<path fill-rule="evenodd" clip-rule="evenodd" d="M324.625 479.75C333.254 479.75 340.25 472.754 340.25 464.125C340.25 455.496 333.254 448.5 324.625 448.5C315.996 448.5 309 455.496 309 464.125C309 472.754 315.996 479.75 324.625 479.75ZM324.625 475.063C330.666 475.063 335.563 470.166 335.563 464.125C335.563 458.084 330.666 453.188 324.625 453.188C318.584 453.188 313.688 458.084 313.688 464.125C313.688 470.166 318.584 475.063 324.625 475.063Z" fill="#C7ACFF"/>
<path d="M340.25 479.75C340.25 471.462 343.542 463.513 349.403 457.653C355.263 451.792 363.212 448.5 371.5 448.5L340.25 479.75C348.538 479.75 356.487 476.458 362.347 470.597C368.208 464.737 371.5 456.788 371.5 448.5" fill="#9589E9"/>
<path d="M-3.5 511C13.076 511 28.9732 517.585 40.6942 529.306C52.4152 541.027 59 556.924 59 573.5L-3.5 511C-3.5 527.576 3.08479 543.473 14.8058 555.194C26.5268 566.915 42.424 573.5 59 573.5" fill="#C3A5FF"/>
<path d="M340.25 511C348.538 511 356.487 514.292 362.347 520.153C368.208 526.013 371.5 533.962 371.5 542.25L340.25 511C340.25 519.288 343.542 527.237 349.403 533.097C355.263 538.958 363.212 542.25 371.5 542.25" fill="#BD9DFF"/>
<path fill-rule="evenodd" clip-rule="evenodd" d="M402.75 573.5C420.009 573.5 434 559.509 434 542.25C434 524.991 420.009 511 402.75 511C385.491 511 371.5 524.991 371.5 542.25C371.5 559.509 385.491 573.5 402.75 573.5ZM402.75 564.125C414.831 564.125 424.625 554.331 424.625 542.25C424.625 530.169 414.831 520.375 402.75 520.375C390.669 520.375 380.875 530.169 380.875 542.25C380.875 554.331 390.669 564.125 402.75 564.125Z" fill="#D8C5FF"/>
<path d="M-3.5 573.5C13.076 573.5 28.9732 580.085 40.6942 591.806C52.4152 603.527 59 619.424 59 636L-3.5 573.5C-3.5 590.076 3.08479 605.973 14.8058 617.694C26.5268 629.415 42.424 636 59 636" fill="#CBB1FF"/>
<path fill-rule="evenodd" clip-rule="evenodd" d="M215.25 636C232.509 636 246.5 622.009 246.5 604.75C246.5 587.491 232.509 573.5 215.25 573.5C197.991 573.5 184 587.491 184 604.75C184 622.009 197.991 636 215.25 636ZM215.25 626.625C227.331 626.625 237.125 616.831 237.125 604.75C237.125 592.669 227.331 582.875 215.25 582.875C203.169 582.875 193.375 592.669 193.375 604.75C193.375 616.831 203.169 626.625 215.25 626.625Z" fill="#B2A9EF"/>
<path fill-rule="evenodd" clip-rule="evenodd" d="M27.75 698.5C45.0088 698.5 59 684.509 59 667.25C59 649.991 45.0088 636 27.75 636C10.4911 636 -3.5 649.991 -3.5 667.25C-3.5 684.509 10.4911 698.5 27.75 698.5ZM27.75 689.125C39.8313 689.125 49.625 679.331 49.625 667.25C49.625 655.169 39.8313 645.375 27.75 645.375C15.6688 645.375 5.875 655.169 5.875 667.25C5.875 679.331 15.6688 689.125 27.75 689.125Z" fill="#8D81E7"/>
<path fill-rule="evenodd" clip-rule="evenodd" d="M277.75 698.5C295.009 698.5 309 684.509 309 667.25C309 649.991 295.009 636 277.75 636C260.491 636 246.5 649.991 246.5 667.25C246.5 684.509 260.491 698.5 277.75 698.5ZM277.75 689.125C289.831 689.125 299.625 679.331 299.625 667.25C299.625 655.169 289.831 645.375 277.75 645.375C265.669 645.375 255.875 655.169 255.875 667.25C255.875 679.331 265.669 689.125 277.75 689.125Z" fill="#F6F2FF"/>
<path fill-rule="evenodd" clip-rule="evenodd" d="M402.75 698.5C420.009 698.5 434 684.509 434 667.25C434 649.991 420.009 636 402.75 636C385.491 636 371.5 649.991 371.5 667.25C371.5 684.509 385.491 698.5 402.75 698.5ZM402.75 689.125C414.831 689.125 424.625 679.331 424.625 667.25C424.625 655.169 414.831 645.375 402.75 645.375C390.669 645.375 380.875 655.169 380.875 667.25C380.875 679.331 390.669 689.125 402.75 689.125Z" fill="#E1D3FF"/>
<path fill-rule="evenodd" clip-rule="evenodd" d="M215.25 761C232.509 761 246.5 747.009 246.5 729.75C246.5 712.491 232.509 698.5 215.25 698.5C197.991 698.5 184 712.491 184 729.75C184 747.009 197.991 761 215.25 761ZM215.25 751.625C227.331 751.625 237.125 741.831 237.125 729.75C237.125 717.669 227.331 707.875 215.25 707.875C203.169 707.875 193.375 717.669 193.375 729.75C193.375 741.831 203.169 751.625 215.25 751.625Z" fill="#9F94EB"/>
<path fill-rule="evenodd" clip-rule="evenodd" d="M277.75 761C295.009 761 309 747.009 309 729.75C309 712.491 295.009 698.5 277.75 698.5C260.491 698.5 246.5 712.491 246.5 729.75C246.5 747.009 260.491 761 277.75 761ZM277.75 751.625C289.831 751.625 299.625 741.831 299.625 729.75C299.625 717.669 289.831 707.875 277.75 707.875C265.669 707.875 255.875 717.669 255.875 729.75C255.875 741.831 265.669 751.625 277.75 751.625Z" fill="#C9AEFF"/>
</g>
</g>
<defs>
<clipPath id="clip0_73_562">
<rect width="375" height="812" fill="white"/>
</clipPath>
</defs>
</svg>


