<svg width="1000" height="625" viewBox="0 0 1000 625" fill="none" xmlns="http://www.w3.org/2000/svg">
<g opacity="0.3">
<path fill-rule="evenodd" clip-rule="evenodd" d="M93.75 62.5C111.009 62.5 125 48.5088 125 31.25C125 13.9911 111.009 0 93.75 0C76.4911 0 62.5 13.9911 62.5 31.25C62.5 48.5088 76.4911 62.5 93.75 62.5ZM93.75 53.125C105.831 53.125 115.625 43.3313 115.625 31.25C115.625 19.1688 105.831 9.375 93.75 9.375C81.6688 9.375 71.875 19.1688 71.875 31.25C71.875 43.3313 81.6688 53.125 93.75 53.125Z" fill="#C4A7FF"/>
<path fill-rule="evenodd" clip-rule="evenodd" d="M218.75 62.5C236.009 62.5 250 48.5088 250 31.25C250 13.9911 236.009 0 218.75 0C201.491 0 187.5 13.9911 187.5 31.25C187.5 48.5088 201.491 62.5 218.75 62.5ZM218.75 53.125C230.831 53.125 240.625 43.3313 240.625 31.25C240.625 19.1688 230.831 9.375 218.75 9.375C206.669 9.375 196.875 19.1688 196.875 31.25C196.875 43.3313 206.669 53.125 218.75 53.125Z" fill="white"/>
<path fill-rule="evenodd" clip-rule="evenodd" d="M343.75 62.5C361.009 62.5 375 48.5088 375 31.25C375 13.9911 361.009 0 343.75 0C326.491 0 312.5 13.9911 312.5 31.25C312.5 48.5088 326.491 62.5 343.75 62.5ZM343.75 53.125C355.831 53.125 365.625 43.3313 365.625 31.25C365.625 19.1688 355.831 9.375 343.75 9.375C331.669 9.375 321.875 19.1688 321.875 31.25C321.875 43.3313 331.669 53.125 343.75 53.125Z" fill="#8B7EE7"/>
<path fill-rule="evenodd" clip-rule="evenodd" d="M843.75 62.5C861.009 62.5 875 48.5088 875 31.25C875 13.9911 861.009 0 843.75 0C826.491 0 812.5 13.9911 812.5 31.25C812.5 48.5088 826.491 62.5 843.75 62.5ZM843.75 53.125C855.831 53.125 865.625 43.3313 865.625 31.25C865.625 19.1688 855.831 9.375 843.75 9.375C831.669 9.375 821.875 19.1688 821.875 31.25C821.875 43.3313 831.669 53.125 843.75 53.125Z" fill="white"/>
<path d="M875 62.5C875 45.924 881.585 30.0269 893.306 18.3058C905.027 6.5848 920.924 0 937.5 0L875 62.5C891.576 62.5 907.473 55.9152 919.194 44.1942C930.915 32.4731 937.5 16.576 937.5 0" fill="#A79EED"/>
<path fill-rule="evenodd" clip-rule="evenodd" d="M265.625 93.75C274.254 93.75 281.25 86.7544 281.25 78.125C281.25 69.4955 274.254 62.5 265.625 62.5C256.996 62.5 250 69.4955 250 78.125C250 86.7544 256.996 93.75 265.625 93.75ZM265.625 89.0625C271.666 89.0625 276.563 84.1656 276.563 78.125C276.563 72.0844 271.666 67.1875 265.625 67.1875C259.584 67.1875 254.688 72.0844 254.688 78.125C254.688 84.1656 259.584 89.0625 265.625 89.0625Z" fill="#EBE1FF"/>
<path d="M437.5 62.5C445.788 62.5 453.737 65.7924 459.597 71.6529C465.458 77.5134 468.75 85.462 468.75 93.75L437.5 62.5C437.5 70.788 440.792 78.7366 446.653 84.5971C452.513 90.4576 460.462 93.75 468.75 93.75" fill="#C8AEFF"/>
<path d="M437.5 125C437.5 116.712 440.792 108.763 446.653 102.903C452.513 97.0424 460.462 93.75 468.75 93.75L437.5 125C445.788 125 453.737 121.708 459.597 115.847C465.458 109.987 468.75 102.038 468.75 93.75" fill="#D8D3F7"/>
<path d="M531.25 125C531.25 116.712 534.542 108.763 540.403 102.903C546.263 97.0424 554.212 93.75 562.5 93.75L531.25 125C539.538 125 547.487 121.708 553.347 115.847C559.208 109.987 562.5 102.038 562.5 93.75" fill="#A9A0ED"/>
<path fill-rule="evenodd" clip-rule="evenodd" d="M765.625 93.75C774.254 93.75 781.25 86.7544 781.25 78.125C781.25 69.4955 774.254 62.5 765.625 62.5C756.996 62.5 750 69.4955 750 78.125C750 86.7544 756.996 93.75 765.625 93.75ZM765.625 89.0625C771.666 89.0625 776.563 84.1656 776.563 78.125C776.563 72.0844 771.666 67.1875 765.625 67.1875C759.584 67.1875 754.688 72.0844 754.688 78.125C754.688 84.1656 759.584 89.0625 765.625 89.0625Z" fill="#A298EC"/>
<path d="M781.25 62.5C789.538 62.5 797.487 65.7924 803.347 71.6529C809.208 77.5134 812.5 85.462 812.5 93.75L781.25 62.5C781.25 70.788 784.542 78.7366 790.403 84.5971C796.263 90.4576 804.212 93.75 812.5 93.75" fill="#FDFCFF"/>
<path d="M750 93.75C758.288 93.75 766.237 97.0424 772.097 102.903C777.958 108.763 781.25 116.712 781.25 125L750 93.75C750 102.038 753.292 109.987 759.153 115.847C765.013 121.708 772.962 125 781.25 125" fill="#B692FF"/>
<path fill-rule="evenodd" clip-rule="evenodd" d="M796.875 125C805.504 125 812.5 118.004 812.5 109.375C812.5 100.746 805.504 93.75 796.875 93.75C788.246 93.75 781.25 100.746 781.25 109.375C781.25 118.004 788.246 125 796.875 125ZM796.875 120.313C802.916 120.313 807.813 115.416 807.813 109.375C807.813 103.334 802.916 98.4375 796.875 98.4375C790.834 98.4375 785.938 103.334 785.938 109.375C785.938 115.416 790.834 120.313 796.875 120.313Z" fill="#DFDCF8"/>
<path fill-rule="evenodd" clip-rule="evenodd" d="M843.75 125C861.009 125 875 111.009 875 93.75C875 76.4911 861.009 62.5 843.75 62.5C826.491 62.5 812.5 76.4911 812.5 93.75C812.5 111.009 826.491 125 843.75 125ZM843.75 115.625C855.831 115.625 865.625 105.831 865.625 93.75C865.625 81.6688 855.831 71.875 843.75 71.875C831.669 71.875 821.875 81.6688 821.875 93.75C821.875 105.831 831.669 115.625 843.75 115.625Z" fill="#FEFDFF"/>
<path d="M875 62.5C891.576 62.5 907.473 69.0848 919.194 80.8058C930.915 92.5269 937.5 108.424 937.5 125L875 62.5C875 79.076 881.585 94.9731 893.306 106.694C905.027 118.415 920.924 125 937.5 125" fill="#B5ADF0"/>
<path d="M937.5 93.75C937.5 89.6462 938.308 85.5826 939.879 81.7911C941.449 77.9997 943.751 74.5547 946.653 71.6529C949.555 68.7511 953 66.4492 956.791 64.8788C960.583 63.3083 964.646 62.5 968.75 62.5L937.5 93.75C945.788 93.75 953.737 90.4576 959.597 84.5971C965.458 78.7366 968.75 70.788 968.75 62.5" fill="#CDB4FF"/>
<path d="M968.75 62.5C972.854 62.5 976.917 63.3083 980.709 64.8788C984.5 66.4492 987.945 68.7511 990.847 71.6529C993.749 74.5547 996.051 77.9997 997.621 81.7911C999.192 85.5826 1000 89.6462 1000 93.75L968.75 62.5C968.75 70.788 972.042 78.7366 977.903 84.5971C983.763 90.4576 991.712 93.75 1000 93.75" fill="#C5BEF3"/>
<path d="M968.75 125C968.75 116.712 972.042 108.763 977.903 102.903C983.763 97.0424 991.712 93.75 1000 93.75L968.75 125C972.854 125 976.917 124.192 980.709 122.621C984.5 121.051 987.945 118.749 990.847 115.847C993.749 112.945 996.051 109.5 997.621 105.709C999.192 101.917 1000 97.8538 1000 93.75" fill="#CEB6FF"/>
<path fill-rule="evenodd" clip-rule="evenodd" d="M31.25 187.5C48.5088 187.5 62.5 173.509 62.5 156.25C62.5 138.991 48.5088 125 31.25 125C13.9911 125 0 138.991 0 156.25C0 173.509 13.9911 187.5 31.25 187.5ZM31.25 178.125C43.3313 178.125 53.125 168.331 53.125 156.25C53.125 144.169 43.3313 134.375 31.25 134.375C19.1688 134.375 9.375 144.169 9.375 156.25C9.375 168.331 19.1688 178.125 31.25 178.125Z" fill="#B4ABEF"/>
<path fill-rule="evenodd" clip-rule="evenodd" d="M281.25 187.5C298.509 187.5 312.5 173.509 312.5 156.25C312.5 138.991 298.509 125 281.25 125C263.991 125 250 138.991 250 156.25C250 173.509 263.991 187.5 281.25 187.5ZM281.25 178.125C293.331 178.125 303.125 168.331 303.125 156.25C303.125 144.169 293.331 134.375 281.25 134.375C269.169 134.375 259.375 144.169 259.375 156.25C259.375 168.331 269.169 178.125 281.25 178.125Z" fill="#FEFDFF"/>
<path d="M562.5 187.5C562.5 170.924 569.085 155.027 580.806 143.306C592.527 131.585 608.424 125 625 125L562.5 187.5C579.076 187.5 594.973 180.915 606.694 169.194C618.415 157.473 625 141.576 625 125" fill="#FAF7FF"/>
<path fill-rule="evenodd" clip-rule="evenodd" d="M781.25 187.5C798.509 187.5 812.5 173.509 812.5 156.25C812.5 138.991 798.509 125 781.25 125C763.991 125 750 138.991 750 156.25C750 173.509 763.991 187.5 781.25 187.5ZM781.25 178.125C793.331 178.125 803.125 168.331 803.125 156.25C803.125 144.169 793.331 134.375 781.25 134.375C769.169 134.375 759.375 144.169 759.375 156.25C759.375 168.331 769.169 178.125 781.25 178.125Z" fill="#C4BDF3"/>
<path fill-rule="evenodd" clip-rule="evenodd" d="M906.25 187.5C923.509 187.5 937.5 173.509 937.5 156.25C937.5 138.991 923.509 125 906.25 125C888.991 125 875 138.991 875 156.25C875 173.509 888.991 187.5 906.25 187.5ZM906.25 178.125C918.331 178.125 928.125 168.331 928.125 156.25C928.125 144.169 918.331 134.375 906.25 134.375C894.169 134.375 884.375 144.169 884.375 156.25C884.375 168.331 894.169 178.125 906.25 178.125Z" fill="white"/>
<path d="M0 250C0 233.424 6.5848 217.527 18.3058 205.806C30.0269 194.085 45.924 187.5 62.5 187.5L0 250C16.576 250 32.4731 243.415 44.1942 231.694C55.9152 219.973 62.5 204.076 62.5 187.5" fill="#E1DEF9"/>
<path fill-rule="evenodd" clip-rule="evenodd" d="M156.25 250C173.509 250 187.5 236.009 187.5 218.75C187.5 201.491 173.509 187.5 156.25 187.5C138.991 187.5 125 201.491 125 218.75C125 236.009 138.991 250 156.25 250ZM156.25 240.625C168.331 240.625 178.125 230.831 178.125 218.75C178.125 206.669 168.331 196.875 156.25 196.875C144.169 196.875 134.375 206.669 134.375 218.75C134.375 230.831 144.169 240.625 156.25 240.625Z" fill="#8D81E7"/>
<path fill-rule="evenodd" clip-rule="evenodd" d="M468.75 250C486.009 250 500 236.009 500 218.75C500 201.491 486.009 187.5 468.75 187.5C451.491 187.5 437.5 201.491 437.5 218.75C437.5 236.009 451.491 250 468.75 250ZM468.75 240.625C480.831 240.625 490.625 230.831 490.625 218.75C490.625 206.669 480.831 196.875 468.75 196.875C456.669 196.875 446.875 206.669 446.875 218.75C446.875 230.831 456.669 240.625 468.75 240.625Z" fill="#C3A5FF"/>
<path d="M0 312.5C0 304.212 3.2924 296.263 9.15291 290.403C15.0134 284.542 22.962 281.25 31.25 281.25L0 312.5C8.28802 312.5 16.2366 309.208 22.0971 303.347C27.9576 297.487 31.25 289.538 31.25 281.25" fill="#F8F7FE"/>
<path d="M31.25 312.5C31.25 304.212 34.5424 296.263 40.4029 290.403C46.2634 284.542 54.212 281.25 62.5 281.25L31.25 312.5C39.538 312.5 47.4866 309.208 53.3471 303.347C59.2076 297.487 62.5 289.538 62.5 281.25" fill="#B18BFF"/>
<path fill-rule="evenodd" clip-rule="evenodd" d="M343.75 312.5C361.009 312.5 375 298.509 375 281.25C375 263.991 361.009 250 343.75 250C326.491 250 312.5 263.991 312.5 281.25C312.5 298.509 326.491 312.5 343.75 312.5ZM343.75 303.125C355.831 303.125 365.625 293.331 365.625 281.25C365.625 269.169 355.831 259.375 343.75 259.375C331.669 259.375 321.875 269.169 321.875 281.25C321.875 293.331 331.669 303.125 343.75 303.125Z" fill="#9D92EB"/>
<path fill-rule="evenodd" clip-rule="evenodd" d="M468.75 312.5C486.009 312.5 500 298.509 500 281.25C500 263.991 486.009 250 468.75 250C451.491 250 437.5 263.991 437.5 281.25C437.5 298.509 451.491 312.5 468.75 312.5ZM468.75 303.125C480.831 303.125 490.625 293.331 490.625 281.25C490.625 269.169 480.831 259.375 468.75 259.375C456.669 259.375 446.875 269.169 446.875 281.25C446.875 293.331 456.669 303.125 468.75 303.125Z" fill="#F3F2FC"/>
<path d="M500 312.5C500 304.212 503.292 296.263 509.153 290.403C515.013 284.542 522.962 281.25 531.25 281.25L500 312.5C508.288 312.5 516.237 309.208 522.097 303.347C527.958 297.487 531.25 289.538 531.25 281.25" fill="#9186E8"/>
<path d="M875 250C891.576 250 907.473 256.585 919.194 268.306C930.915 280.027 937.5 295.924 937.5 312.5L875 250C875 266.576 881.585 282.473 893.306 294.194C905.027 305.915 920.924 312.5 937.5 312.5" fill="#A89EED"/>
<path d="M937.5 250C954.076 250 969.973 256.585 981.694 268.306C993.415 280.027 1000 295.924 1000 312.5L937.5 250C937.5 266.576 944.085 282.473 955.806 294.194C967.527 305.915 983.424 312.5 1000 312.5" fill="#9E94EB"/>
<path d="M0 312.5C8.28802 312.5 16.2366 315.792 22.0971 321.653C27.9576 327.513 31.25 335.462 31.25 343.75L0 312.5C0 320.788 3.2924 328.737 9.15291 334.597C15.0134 340.458 22.962 343.75 31.25 343.75" fill="#ECEAFB"/>
<path d="M125 375C125 358.424 131.585 342.527 143.306 330.806C155.027 319.085 170.924 312.5 187.5 312.5L125 375C141.576 375 157.473 368.415 169.194 356.694C180.915 344.973 187.5 329.076 187.5 312.5" fill="#B692FF"/>
<path d="M375 312.5C391.576 312.5 407.473 319.085 419.194 330.806C430.915 342.527 437.5 358.424 437.5 375L375 312.5C375 329.076 381.585 344.973 393.306 356.694C405.027 368.415 420.924 375 437.5 375" fill="#8578E6"/>
<path fill-rule="evenodd" clip-rule="evenodd" d="M484.375 343.75C493.004 343.75 500 336.754 500 328.125C500 319.496 493.004 312.5 484.375 312.5C475.746 312.5 468.75 319.496 468.75 328.125C468.75 336.754 475.746 343.75 484.375 343.75ZM484.375 339.063C490.416 339.063 495.313 334.166 495.313 328.125C495.313 322.084 490.416 317.188 484.375 317.188C478.334 317.188 473.438 322.084 473.438 328.125C473.438 334.166 478.334 339.063 484.375 339.063Z" fill="#A096EB"/>
<path fill-rule="evenodd" clip-rule="evenodd" d="M656.25 375C673.509 375 687.5 361.009 687.5 343.75C687.5 326.491 673.509 312.5 656.25 312.5C638.991 312.5 625 326.491 625 343.75C625 361.009 638.991 375 656.25 375ZM656.25 365.625C668.331 365.625 678.125 355.831 678.125 343.75C678.125 331.669 668.331 321.875 656.25 321.875C644.169 321.875 634.375 331.669 634.375 343.75C634.375 355.831 644.169 365.625 656.25 365.625Z" fill="#988DEA"/>
<path fill-rule="evenodd" clip-rule="evenodd" d="M890.625 343.75C899.254 343.75 906.25 336.754 906.25 328.125C906.25 319.496 899.254 312.5 890.625 312.5C881.996 312.5 875 319.496 875 328.125C875 336.754 881.996 343.75 890.625 343.75ZM890.625 339.063C896.666 339.063 901.563 334.166 901.563 328.125C901.563 322.084 896.666 317.188 890.625 317.188C884.584 317.188 879.688 322.084 879.688 328.125C879.688 334.166 884.584 339.063 890.625 339.063Z" fill="#C7ACFF"/>
<path d="M906.25 343.75C906.25 335.462 909.542 327.513 915.403 321.653C921.263 315.792 929.212 312.5 937.5 312.5L906.25 343.75C914.538 343.75 922.487 340.458 928.347 334.597C934.208 328.737 937.5 320.788 937.5 312.5" fill="#9589E9"/>
<path fill-rule="evenodd" clip-rule="evenodd" d="M31.25 437.5C48.5088 437.5 62.5 423.509 62.5 406.25C62.5 388.991 48.5088 375 31.25 375C13.9911 375 0 388.991 0 406.25C0 423.509 13.9911 437.5 31.25 437.5ZM31.25 428.125C43.3313 428.125 53.125 418.331 53.125 406.25C53.125 394.169 43.3313 384.375 31.25 384.375C19.1688 384.375 9.375 394.169 9.375 406.25C9.375 418.331 19.1688 428.125 31.25 428.125Z" fill="#B6AEF0"/>
<path d="M125 437.5C125 420.924 131.585 405.027 143.306 393.306C155.027 381.585 170.924 375 187.5 375L125 437.5C141.576 437.5 157.473 430.915 169.194 419.194C180.915 407.473 187.5 391.576 187.5 375" fill="#E1D2FF"/>
<path d="M437.5 437.5C437.5 420.924 444.085 405.027 455.806 393.306C467.527 381.585 483.424 375 500 375L437.5 437.5C454.076 437.5 469.973 430.915 481.694 419.194C493.415 407.473 500 391.576 500 375" fill="#D8C5FF"/>
<path fill-rule="evenodd" clip-rule="evenodd" d="M531.25 437.5C548.509 437.5 562.5 423.509 562.5 406.25C562.5 388.991 548.509 375 531.25 375C513.991 375 500 388.991 500 406.25C500 423.509 513.991 437.5 531.25 437.5ZM531.25 428.125C543.331 428.125 553.125 418.331 553.125 406.25C553.125 394.169 543.331 384.375 531.25 384.375C519.169 384.375 509.375 394.169 509.375 406.25C509.375 418.331 519.169 428.125 531.25 428.125Z" fill="#E7DCFF"/>
<path d="M562.5 375C579.076 375 594.973 381.585 606.694 393.306C618.415 405.027 625 420.924 625 437.5L562.5 375C562.5 391.576 569.085 407.473 580.806 419.194C592.527 430.915 608.424 437.5 625 437.5" fill="#C3A5FF"/>
<path d="M906.25 375C914.538 375 922.487 378.292 928.347 384.153C934.208 390.013 937.5 397.962 937.5 406.25L906.25 375C906.25 383.288 909.542 391.237 915.403 397.097C921.263 402.958 929.212 406.25 937.5 406.25" fill="#BD9DFF"/>
<path fill-rule="evenodd" clip-rule="evenodd" d="M968.75 437.5C986.009 437.5 1000 423.509 1000 406.25C1000 388.991 986.009 375 968.75 375C951.491 375 937.5 388.991 937.5 406.25C937.5 423.509 951.491 437.5 968.75 437.5ZM968.75 428.125C980.831 428.125 990.625 418.331 990.625 406.25C990.625 394.169 980.831 384.375 968.75 384.375C956.669 384.375 946.875 394.169 946.875 406.25C946.875 418.331 956.669 428.125 968.75 428.125Z" fill="#D8C5FF"/>
<path d="M250 437.5C266.576 437.5 282.473 444.085 294.194 455.806C305.915 467.527 312.5 483.424 312.5 500L250 437.5C250 454.076 256.585 469.973 268.306 481.694C280.027 493.415 295.924 500 312.5 500" fill="#8D81E7"/>
<path d="M500 437.5C508.288 437.5 516.237 440.792 522.097 446.653C527.958 452.513 531.25 460.462 531.25 468.75L500 437.5C500 445.788 503.292 453.737 509.153 459.597C515.013 465.458 522.962 468.75 531.25 468.75" fill="#DBCAFF"/>
<path fill-rule="evenodd" clip-rule="evenodd" d="M515.625 500C524.254 500 531.25 493.004 531.25 484.375C531.25 475.746 524.254 468.75 515.625 468.75C506.996 468.75 500 475.746 500 484.375C500 493.004 506.996 500 515.625 500ZM515.625 495.313C521.666 495.313 526.563 490.416 526.563 484.375C526.563 478.334 521.666 473.438 515.625 473.438C509.584 473.438 504.688 478.334 504.688 484.375C504.688 490.416 509.584 495.313 515.625 495.313Z" fill="#D7C4FF"/>
<path d="M562.5 437.5C579.076 437.5 594.973 444.085 606.694 455.806C618.415 467.527 625 483.424 625 500L562.5 437.5C562.5 454.076 569.085 469.973 580.806 481.694C592.527 493.415 608.424 500 625 500" fill="#CBB1FF"/>
<path fill-rule="evenodd" clip-rule="evenodd" d="M781.25 500C798.509 500 812.5 486.009 812.5 468.75C812.5 451.491 798.509 437.5 781.25 437.5C763.991 437.5 750 451.491 750 468.75C750 486.009 763.991 500 781.25 500ZM781.25 490.625C793.331 490.625 803.125 480.831 803.125 468.75C803.125 456.669 793.331 446.875 781.25 446.875C769.169 446.875 759.375 456.669 759.375 468.75C759.375 480.831 769.169 490.625 781.25 490.625Z" fill="#B2A9EF"/>
<path fill-rule="evenodd" clip-rule="evenodd" d="M171.875 531.25C180.504 531.25 187.5 524.254 187.5 515.625C187.5 506.996 180.504 500 171.875 500C163.246 500 156.25 506.996 156.25 515.625C156.25 524.254 163.246 531.25 171.875 531.25ZM171.875 526.563C177.916 526.563 182.813 521.666 182.813 515.625C182.813 509.584 177.916 504.688 171.875 504.688C165.834 504.688 160.938 509.584 160.938 515.625C160.938 521.666 165.834 526.563 171.875 526.563Z" fill="#A79EED"/>
<path fill-rule="evenodd" clip-rule="evenodd" d="M171.875 562.5C180.504 562.5 187.5 555.504 187.5 546.875C187.5 538.246 180.504 531.25 171.875 531.25C163.246 531.25 156.25 538.246 156.25 546.875C156.25 555.504 163.246 562.5 171.875 562.5ZM171.875 557.813C177.916 557.813 182.813 552.916 182.813 546.875C182.813 540.834 177.916 535.938 171.875 535.938C165.834 535.938 160.938 540.834 160.938 546.875C160.938 552.916 165.834 557.813 171.875 557.813Z" fill="#C0B9F2"/>
<path d="M500 500C516.576 500 532.473 506.585 544.194 518.306C555.915 530.027 562.5 545.924 562.5 562.5L500 500C500 516.576 506.585 532.473 518.306 544.194C530.027 555.915 545.924 562.5 562.5 562.5" fill="#AD85FF"/>
<path fill-rule="evenodd" clip-rule="evenodd" d="M593.75 562.5C611.009 562.5 625 548.509 625 531.25C625 513.991 611.009 500 593.75 500C576.491 500 562.5 513.991 562.5 531.25C562.5 548.509 576.491 562.5 593.75 562.5ZM593.75 553.125C605.831 553.125 615.625 543.331 615.625 531.25C615.625 519.169 605.831 509.375 593.75 509.375C581.669 509.375 571.875 519.169 571.875 531.25C571.875 543.331 581.669 553.125 593.75 553.125Z" fill="#8D81E7"/>
<path fill-rule="evenodd" clip-rule="evenodd" d="M843.75 562.5C861.009 562.5 875 548.509 875 531.25C875 513.991 861.009 500 843.75 500C826.491 500 812.5 513.991 812.5 531.25C812.5 548.509 826.491 562.5 843.75 562.5ZM843.75 553.125C855.831 553.125 865.625 543.331 865.625 531.25C865.625 519.169 855.831 509.375 843.75 509.375C831.669 509.375 821.875 519.169 821.875 531.25C821.875 543.331 831.669 553.125 843.75 553.125Z" fill="#F6F2FF"/>
<path fill-rule="evenodd" clip-rule="evenodd" d="M968.75 562.5C986.009 562.5 1000 548.509 1000 531.25C1000 513.991 986.009 500 968.75 500C951.491 500 937.5 513.991 937.5 531.25C937.5 548.509 951.491 562.5 968.75 562.5ZM968.75 553.125C980.831 553.125 990.625 543.331 990.625 531.25C990.625 519.169 980.831 509.375 968.75 509.375C956.669 509.375 946.875 519.169 946.875 531.25C946.875 543.331 956.669 553.125 968.75 553.125Z" fill="#E1D3FF"/>
<path fill-rule="evenodd" clip-rule="evenodd" d="M93.75 625C111.009 625 125 611.009 125 593.75C125 576.491 111.009 562.5 93.75 562.5C76.4911 562.5 62.5 576.491 62.5 593.75C62.5 611.009 76.4911 625 93.75 625ZM93.75 615.625C105.831 615.625 115.625 605.831 115.625 593.75C115.625 581.669 105.831 571.875 93.75 571.875C81.6688 571.875 71.875 581.669 71.875 593.75C71.875 605.831 81.6688 615.625 93.75 615.625Z" fill="#7060E1"/>
<path d="M156.25 562.5C164.538 562.5 172.487 565.792 178.347 571.653C184.208 577.513 187.5 585.462 187.5 593.75L156.25 562.5C156.25 570.788 159.542 578.737 165.403 584.597C171.263 590.458 179.212 593.75 187.5 593.75" fill="#F3EEFF"/>
<path d="M187.5 562.5C195.788 562.5 203.737 565.792 209.597 571.653C215.458 577.513 218.75 585.462 218.75 593.75L187.5 562.5C187.5 570.788 190.792 578.737 196.653 584.597C202.513 590.458 210.462 593.75 218.75 593.75" fill="#E3D6FF"/>
<path fill-rule="evenodd" clip-rule="evenodd" d="M234.375 593.75C243.004 593.75 250 586.754 250 578.125C250 569.496 243.004 562.5 234.375 562.5C225.746 562.5 218.75 569.496 218.75 578.125C218.75 586.754 225.746 593.75 234.375 593.75ZM234.375 589.063C240.416 589.063 245.313 584.166 245.313 578.125C245.313 572.084 240.416 567.188 234.375 567.188C228.334 567.188 223.438 572.084 223.438 578.125C223.438 584.166 228.334 589.063 234.375 589.063Z" fill="#DFCFFF"/>
<path fill-rule="evenodd" clip-rule="evenodd" d="M781.25 625C798.509 625 812.5 611.009 812.5 593.75C812.5 576.491 798.509 562.5 781.25 562.5C763.991 562.5 750 576.491 750 593.75C750 611.009 763.991 625 781.25 625ZM781.25 615.625C793.331 615.625 803.125 605.831 803.125 593.75C803.125 581.669 793.331 571.875 781.25 571.875C769.169 571.875 759.375 581.669 759.375 593.75C759.375 605.831 769.169 615.625 781.25 615.625Z" fill="#9F94EB"/>
<path fill-rule="evenodd" clip-rule="evenodd" d="M843.75 625C861.009 625 875 611.009 875 593.75C875 576.491 861.009 562.5 843.75 562.5C826.491 562.5 812.5 576.491 812.5 593.75C812.5 611.009 826.491 625 843.75 625ZM843.75 615.625C855.831 615.625 865.625 605.831 865.625 593.75C865.625 581.669 855.831 571.875 843.75 571.875C831.669 571.875 821.875 581.669 821.875 593.75C821.875 605.831 831.669 615.625 843.75 615.625Z" fill="#C9AEFF"/>
<path fill-rule="evenodd" clip-rule="evenodd" d="M984.375 593.75C993.004 593.75 1000 586.754 1000 578.125C1000 569.496 993.004 562.5 984.375 562.5C975.746 562.5 968.75 569.496 968.75 578.125C968.75 586.754 975.746 593.75 984.375 593.75ZM984.375 589.063C990.416 589.063 995.313 584.166 995.313 578.125C995.313 572.084 990.416 567.188 984.375 567.188C978.334 567.188 973.438 572.084 973.438 578.125C973.438 584.166 978.334 589.063 984.375 589.063Z" fill="#6E5EE1"/>
</g>
</svg>
