<svg width="428" height="229" viewBox="0 0 428 229" fill="none" xmlns="http://www.w3.org/2000/svg">
<mask id="mask0_116_1052" style="mask-type:alpha" maskUnits="userSpaceOnUse" x="0" y="0" width="428" height="229">
<rect width="428" height="229" rx="17" fill="#9087E5"/>
</mask>
<g mask="url(#mask0_116_1052)">
<path d="M396.37 198.003C396.08 201.033 395.135 203.963 393.601 206.586C392.069 209.209 389.985 211.463 387.496 213.189C385.007 214.915 382.173 216.071 379.193 216.577C376.214 217.083 373.161 216.926 370.248 216.117C367.335 215.308 364.633 213.867 362.331 211.895C360.03 209.923 358.184 207.467 356.924 204.701C355.664 201.934 355.02 198.923 355.037 195.879C355.055 192.834 355.732 189.831 357.024 187.079C360.654 179.366 368.792 174.388 377.714 175.246C389.106 176.34 397.459 186.53 396.37 198.003Z" fill="#C4D0FB"/>
<path d="M355.627 185.358L356.16 184.38C356.385 183.892 356.584 183.393 356.758 182.885C357.027 182.087 356.932 180.949 358.11 179.875C359.288 178.8 357.546 179.097 356.958 179.592C356.467 180.005 356.068 181.176 355.579 181.44C355.468 181.281 355.379 181.107 355.317 180.923L354.25 175.885C354.235 175.804 354.191 175.731 354.127 175.681C354.062 175.63 353.982 175.604 353.901 175.608L353.705 175.614C353.658 175.617 353.612 175.629 353.569 175.651C353.527 175.673 353.49 175.703 353.46 175.74C353.429 175.777 353.408 175.82 353.395 175.866C353.382 175.912 353.38 175.96 353.387 176.008C353.551 177.086 354.121 180.293 354.063 180.294L353.945 180.351L352.309 175.247C352.286 175.167 352.235 175.098 352.165 175.053C352.094 175.008 352.01 174.991 351.928 175.005L351.666 175.049C351.621 175.056 351.577 175.072 351.539 175.097C351.499 175.122 351.466 175.154 351.44 175.193C351.415 175.231 351.396 175.274 351.388 175.319C351.379 175.365 351.38 175.412 351.389 175.457C351.641 176.631 352.817 180.536 352.758 180.54L352.614 180.589L350.838 176.366C350.814 176.282 350.758 176.21 350.682 176.166C350.607 176.123 350.518 176.109 350.433 176.13L350.224 176.182C350.181 176.193 350.14 176.212 350.104 176.239C350.068 176.265 350.037 176.299 350.014 176.337C349.991 176.376 349.975 176.419 349.968 176.463C349.961 176.508 349.964 176.553 349.974 176.597L351.572 180.752L351.425 180.845L349.752 177.844C349.719 177.767 349.66 177.704 349.585 177.668C349.511 177.631 349.425 177.624 349.345 177.647L349.245 177.677C349.16 177.702 349.088 177.76 349.044 177.838C349.001 177.915 348.988 178.007 349.011 178.094C349.172 178.71 349.972 180.002 350.437 181.349C350.802 182.393 350.827 183.229 351.428 184.492C351.681 185.028 352.163 185.664 352.426 186.019" fill="#FFCCD7"/>
<path d="M385.969 214.175C382.086 216.394 377.594 217.289 373.164 216.727C368.734 216.166 364.603 214.178 361.385 211.059L361.635 204.607L353.618 203.273C352.435 202.945 351.406 202.204 350.717 201.181C350.028 200.158 349.723 198.922 349.857 197.693L350.513 185.028L356.848 185.468L357.022 187.08L358.001 195.587C358.001 195.587 364.628 196.422 373.671 198.754C382.474 201.025 385.067 208.901 385.969 214.175Z" fill="#6A5AE0"/>
<path d="M361.548 204.525L361.622 202.327" stroke="#C4D0FB" stroke-linecap="square"/>
<path d="M379.072 190.857C381.5 187.739 381.154 183.382 378.299 181.126C375.445 178.87 371.162 179.57 368.734 182.688C366.306 185.806 366.652 190.163 369.507 192.419C372.362 194.675 376.644 193.976 379.072 190.857Z" fill="#001833"/>
<path d="M369.501 201.276C369.024 200.928 368.673 200.434 368.501 199.867C368.328 199.3 368.344 198.692 368.545 198.135L371.697 189.414C371.805 189.06 371.983 188.732 372.221 188.45C372.457 188.168 372.75 187.937 373.078 187.772C373.407 187.607 373.765 187.511 374.132 187.49C374.499 187.469 374.866 187.523 375.211 187.65C375.557 187.776 375.872 187.972 376.14 188.225C376.407 188.479 376.621 188.784 376.768 189.123C376.915 189.463 376.992 189.828 376.993 190.198C376.995 190.568 376.923 190.935 376.779 191.276L373.626 199.998C373.482 200.393 373.249 200.75 372.946 201.039C372.643 201.329 372.277 201.544 371.878 201.668C371.478 201.791 371.056 201.82 370.643 201.752C370.231 201.683 369.84 201.52 369.501 201.273V201.276Z" fill="#FFCCD7"/>
<path d="M370.036 196.413L369.512 196.217C368.903 195.989 368.351 195.629 367.896 195.161C367.44 194.694 367.093 194.131 366.878 193.513C366.663 192.895 366.586 192.237 366.652 191.586C366.719 190.935 366.927 190.306 367.261 189.745L368.92 186.964C369.456 186.066 370.288 185.387 371.271 185.046C372.254 184.705 373.324 184.724 374.296 185.099V185.099C375.391 185.522 376.274 186.367 376.751 187.446C377.228 188.526 377.261 189.752 376.84 190.856L375.705 193.832C375.288 194.928 374.459 195.813 373.397 196.297C372.336 196.78 371.128 196.822 370.036 196.413Z" fill="#FFCCD7"/>
<path d="M370.455 188.542L368.183 190.4L369.075 191.075" stroke="#0C092A" stroke-linecap="square"/>
<path d="M371.032 189.855C371.297 189.855 371.511 189.638 371.511 189.372C371.511 189.105 371.297 188.889 371.032 188.889C370.767 188.889 370.552 189.105 370.552 189.372C370.552 189.638 370.767 189.855 371.032 189.855Z" fill="#0C092A"/>
<path d="M369.038 188.838C369.303 188.838 369.518 188.622 369.518 188.356C369.518 188.089 369.303 187.873 369.038 187.873C368.774 187.873 368.559 188.089 368.559 188.356C368.559 188.622 368.774 188.838 369.038 188.838Z" fill="#0C092A"/>
<path d="M383.573 203.819C383.573 203.819 381.362 209.396 377.055 206.919C369.924 202.816 371.388 197.421 373.399 194.953C374.2 193.97 375.32 193.534 376.489 193.177C373.09 190.157 374.761 187.751 374.761 187.751C374.761 187.751 365.668 187.163 368.609 182.817C371.549 178.471 376.801 179.041 379.585 180.928C386.057 185.317 383.854 189.79 385.331 191.437C393.704 200.784 383.573 203.819 383.573 203.819Z" fill="#001833"/>
<path d="M377.445 193.56C378.385 192.984 378.684 191.75 378.112 190.802C377.541 189.855 376.316 189.554 375.375 190.13L373.828 191.078C372.888 191.654 372.589 192.889 373.16 193.836C373.732 194.783 374.958 195.084 375.897 194.508L377.445 193.56Z" fill="#FFCCD7"/>
<path fill-rule="evenodd" clip-rule="evenodd" d="M377.022 191.557L374.827 192.9Z" fill="#0C092A"/>
<path d="M377.022 191.557L374.827 192.9" stroke="#0C092A" stroke-linecap="square"/>
<path d="M370.398 192.436C370.421 192.744 370.322 193.048 370.123 193.282C369.923 193.515 369.64 193.66 369.334 193.683C369.029 193.707 368.727 193.607 368.496 193.406C368.263 193.205 368.119 192.92 368.097 192.612C368.048 191.972 368.691 191.978 369.326 191.929C369.961 191.879 370.349 191.796 370.398 192.436Z" fill="#0C092A"/>
<path d="M92.9249 43.286C92.6173 46.5068 91.6141 49.6208 89.9853 52.4095C88.3566 55.1982 86.1419 57.5941 83.4967 59.429C80.8514 61.2639 77.8397 62.4935 74.6727 63.0315C71.5058 63.5694 68.2604 63.4027 65.1642 62.543C62.068 61.6832 59.196 60.1514 56.7497 58.0549C54.3035 55.9583 52.3422 53.3479 51.0036 50.4067C49.6648 47.4657 48.9811 44.265 49.0004 41.0294C49.0197 37.7938 49.7415 34.6016 51.1151 31.6769C54.9722 23.4787 63.62 18.1902 73.1021 19.1019C85.2052 20.265 94.0804 31.0934 92.9249 43.286Z" fill="#C4D0FB"/>
<path d="M85.1264 58.1976L84.3617 58.8138C83.5699 59.4224 82.7383 59.9766 81.8726 60.4725C79.3086 61.9365 76.479 62.8672 73.5514 63.2093C70.6239 63.5513 67.6579 63.2978 64.8294 62.4638C62.0009 61.6298 59.3673 60.2323 57.0847 58.3539C54.8022 56.4757 52.9171 54.1549 51.5413 51.5291C55.0364 48.9409 60.8879 45.8489 68.3728 46.48C80.8926 47.5412 85.1264 58.1976 85.1264 58.1976Z" fill="#9B75EC"/>
<path d="M70.2094 51.7376C70.0685 51.7379 69.9278 51.7295 69.7881 51.7123C68.8594 51.6009 68.0127 51.1224 67.4342 50.3821C66.8556 49.6418 66.5927 48.7003 66.7032 47.7647L68.3737 33.6076C68.4844 32.6719 68.9596 31.8188 69.6947 31.236C70.0587 30.9474 70.4755 30.7339 70.9214 30.6076C71.3673 30.4814 71.8335 30.4448 72.2934 30.5001C72.7533 30.5554 73.1979 30.7013 73.6018 30.9297C74.0057 31.1581 74.361 31.4644 74.6474 31.831C74.9338 32.1977 75.1458 32.6177 75.2711 33.0669C75.3964 33.5161 75.4327 33.9858 75.3779 34.4491L73.7073 48.6062C73.605 49.4687 73.1926 50.2635 72.5481 50.8405C71.9035 51.4175 71.0716 51.7366 70.2094 51.7376V51.7376Z" fill="#FFCCD7"/>
<path d="M73.1615 44.5053L73.9095 44.5894C74.7793 44.6883 75.6602 44.5927 76.4892 44.3096C77.3182 44.0265 78.0751 43.5628 78.706 42.9514C79.3369 42.3401 79.8264 41.5962 80.1394 40.7725C80.4525 39.949 80.5816 39.066 80.5174 38.1865L80.2 33.8293C80.0974 32.4221 79.506 31.0962 78.5296 30.0847C77.5532 29.0731 76.2541 28.4403 74.8608 28.2978V28.2978C73.2889 28.1371 71.7182 28.6121 70.4938 29.6183C69.2696 30.6244 68.4923 32.0793 68.3327 33.6629L67.9021 37.9349C67.7436 39.5072 68.207 41.0788 69.1917 42.3089C70.1763 43.5391 71.6028 44.3282 73.1615 44.5053Z" fill="#FFCCD7"/>
<path d="M69.6964 39.874L69.6972 39.8734C70.7275 39.2349 71.0489 37.8757 70.4151 36.8377L69.7639 35.7714C69.13 34.7334 67.781 34.4096 66.7507 35.0482L66.7499 35.0486C65.7196 35.6872 65.3982 37.0464 66.0321 38.0843L66.6833 39.1507C67.3171 40.1887 68.6661 40.5125 69.6964 39.874Z" fill="#FFCCD7"/>
<path d="M66.9973 36.7729L68.7532 38.6427" stroke="#001833" stroke-linecap="square"/>
<path d="M77.4382 34.3828L77.5616 37.8844L76.3254 37.9349" stroke="#001833" stroke-linecap="square"/>
<path d="M73.7556 39.0223C73.6534 39.2126 73.5895 39.4213 73.5673 39.6366C73.5452 39.8518 73.5653 40.0693 73.6267 40.2767C73.6879 40.4841 73.7893 40.6773 73.9247 40.8452C74.0601 41.0132 74.227 41.1526 74.4159 41.2556C74.6049 41.3585 74.812 41.423 75.0257 41.4453C75.2393 41.4675 75.4552 41.4472 75.661 41.3854C75.8669 41.3237 76.0586 41.2216 76.2253 41.0852C76.3921 40.9488 76.5304 40.7807 76.6326 40.5903C77.0623 39.789 76.2261 39.4234 75.4261 38.9905C74.6261 38.5576 74.1853 38.2219 73.7556 39.0223Z" fill="#001833"/>
<path d="M70.1566 38.3896L71.8272 32.068L72.2235 30.5719C72.5958 30.974 73.0317 31.3112 73.5135 31.5696C75.262 32.5177 80.5334 32.14 81.2638 28.4158C81.8597 25.3789 78.6587 27.1246 77.0198 26.9347C74.4443 26.6355 72.6578 25.1087 69.1311 27.0282C64.913 29.3274 66.9112 34.9637 66.9112 34.9637C66.9112 34.9637 68.7673 34.2316 70.1566 38.3896Z" fill="#001833"/>
<path opacity="0.4" d="M74.0962 44.6081L71.8623 44.4033L73.9022 46.4086L74.0962 44.6081Z" fill="black"/>
<path d="M75.0578 36.274C75.3965 36.274 75.6713 35.9973 75.6713 35.656C75.6713 35.3147 75.3965 35.0381 75.0578 35.0381C74.719 35.0381 74.4443 35.3147 74.4443 35.656C74.4443 35.9973 74.719 36.274 75.0578 36.274Z" fill="#001833"/>
<path d="M78.7172 36.274C79.0561 36.274 79.3307 35.9973 79.3307 35.656C79.3307 35.3147 79.0561 35.0381 78.7172 35.0381C78.3784 35.0381 78.1038 35.3147 78.1038 35.656C78.1038 35.9973 78.3784 36.274 78.7172 36.274Z" fill="#001833"/>
<path opacity="0.1" fill-rule="evenodd" clip-rule="evenodd" d="M119.853 297.099C151.917 297.099 177.909 271.106 177.909 239.043C177.909 206.979 151.917 180.986 119.853 180.986C87.7891 180.986 61.7964 206.979 61.7964 239.043C61.7964 271.106 87.7891 297.099 119.853 297.099Z" fill="#C4D0FB"/>
<path opacity="0.2" fill-rule="evenodd" clip-rule="evenodd" d="M121.422 341.034C176.883 341.034 221.844 296.074 221.844 240.612C221.844 185.151 176.883 140.19 121.422 140.19C65.9604 140.19 21 185.151 21 240.612C21 296.074 65.9604 341.034 121.422 341.034Z" stroke="#C4D0FB"/>
<path opacity="0.1" fill-rule="evenodd" clip-rule="evenodd" d="M313.009 30.9093C345.073 30.9093 371.065 4.91651 371.065 -27.1472C371.065 -59.2109 345.073 -85.2036 313.009 -85.2036C280.945 -85.2036 254.952 -59.2109 254.952 -27.1472C254.952 4.91651 280.945 30.9093 313.009 30.9093Z" fill="#C4D0FB"/>
<path opacity="0.2" fill-rule="evenodd" clip-rule="evenodd" d="M314.578 74.8439C370.04 74.8439 415 29.8835 415 -25.578C415 -81.0396 370.04 -126 314.578 -126C259.117 -126 214.156 -81.0396 214.156 -25.578C214.156 29.8835 259.117 74.8439 314.578 74.8439Z" stroke="#C4D0FB"/>
<path opacity="0.1" fill-rule="evenodd" clip-rule="evenodd" d="M160.822 33.5219C167.191 33.5219 172.353 28.359 172.353 21.9902C172.353 15.6214 167.191 10.4585 160.822 10.4585C154.453 10.4585 149.29 15.6214 149.29 21.9902C149.29 28.359 154.453 33.5219 160.822 33.5219Z" fill="#C4D0FB"/>
<path opacity="0.2" fill-rule="evenodd" clip-rule="evenodd" d="M260.283 199.771C262.937 199.771 265.088 197.62 265.088 194.966C265.088 192.312 262.937 190.161 260.283 190.161C257.629 190.161 255.478 192.312 255.478 194.966C255.478 197.62 257.629 199.771 260.283 199.771Z" fill="#C4D0FB"/>
</g>
</svg>
