<svg width="100" height="100" viewBox="0 0 100 100" fill="none" xmlns="http://www.w3.org/2000/svg">
<mask id="mask0_58_10645" style="mask-type:alpha" maskUnits="userSpaceOnUse" x="0" y="0" width="100" height="100">
<rect width="100" height="100" rx="24" fill="#6A5AE0"/>
</mask>
<g mask="url(#mask0_58_10645)">
<path d="M102.216 72.2475C102.216 86.2713 96.6005 99.7207 86.6049 109.637C76.6092 119.554 63.0524 125.125 48.9164 125.125C48.1874 125.125 47.4721 125.111 46.7431 125.084C42.8495 124.926 38.9848 124.35 35.2166 123.365C35.9456 122.996 36.6608 122.628 37.3761 122.232C37.3898 122.232 37.4036 122.218 37.4311 122.205L37.4448 122.191C38.2014 121.782 38.9441 121.372 39.6731 120.949C39.8519 120.84 40.0308 120.745 40.2096 120.649C40.8973 120.24 41.5851 119.83 42.259 119.394C42.4583 119.287 42.6512 119.168 42.8367 119.039C43.3594 118.725 43.8821 118.384 44.391 118.043C44.7487 117.811 45.1201 117.565 45.4639 117.333C45.9866 116.978 46.4955 116.624 47.0045 116.255C47.3483 116.023 47.6647 115.791 47.9948 115.532C48.435 115.232 48.8614 114.904 49.2878 114.577C49.6729 114.304 50.0443 114.017 50.4157 113.717C50.9384 113.321 51.4473 112.912 51.9562 112.475C52.1763 112.312 52.3964 112.134 52.6165 111.943C53.1666 111.493 53.7031 111.029 54.2395 110.551C54.5284 110.306 54.8172 110.06 55.1061 109.787C55.4224 109.514 55.725 109.241 56.0277 108.955C56.6054 108.436 57.1693 107.89 57.7333 107.345C57.8088 107.283 57.878 107.215 57.9396 107.14C58.4898 106.621 59.0262 106.075 59.5489 105.53C59.9203 105.175 60.2642 104.806 60.5943 104.438C60.9932 104.042 61.3645 103.633 61.7359 103.223C61.956 102.992 62.1623 102.76 62.3549 102.528C62.8501 101.982 63.3315 101.422 63.8129 100.863C64.0605 100.576 64.3081 100.276 64.5419 99.9758C64.8995 99.5664 65.2434 99.157 65.5598 98.734C65.8899 98.3383 66.2063 97.9289 66.5089 97.5195C66.7977 97.1647 67.0728 96.7963 67.3342 96.4415C67.6918 95.9776 68.0356 95.5136 68.3658 95.036C68.6959 94.5584 69.0535 94.0808 69.3836 93.5895C69.5475 93.3753 69.699 93.1521 69.8375 92.9209C70.3052 92.2386 70.7591 91.5427 71.1993 90.8467C71.7632 89.9871 72.2997 89.1137 72.8086 88.2267C73.0424 87.8447 73.2625 87.4626 73.4826 87.0805C75.2663 83.9596 76.8558 80.733 78.2418 77.4193C78.4481 76.9553 78.6407 76.4914 78.8195 76.0138C79.0395 75.5089 79.2321 74.9903 79.4247 74.4718C79.5897 74.0488 79.7548 73.6121 79.9061 73.1754C80.0849 72.6978 80.25 72.2066 80.415 71.729C81.0202 69.9823 81.5704 68.222 82.0519 66.4344C82.1756 65.9841 82.2994 65.5474 82.4095 65.0971C82.492 64.8106 82.5608 64.5376 82.6296 64.2511L82.9597 62.8592C83.3998 60.9624 83.7712 59.052 84.0876 57.1143L84.2939 55.8043C84.3214 55.5996 84.3489 55.4086 84.3764 55.2039C84.459 54.6854 84.5277 54.1668 84.5827 53.6483C84.679 52.8705 84.7753 52.0927 84.8441 51.3149C84.8716 51.1102 84.8854 50.9055 84.8991 50.7008C84.9541 50.1686 84.9954 49.6228 85.0367 49.0906C85.0779 48.5584 85.1054 47.9989 85.1329 47.4531C85.1605 47.071 85.1742 46.6889 85.188 46.2932C85.243 45.0378 85.2705 43.7824 85.2705 42.527C85.2705 41.8856 85.2705 41.2579 85.243 40.6302C85.243 40.3027 85.243 39.9888 85.2292 39.6613C85.188 38.5287 85.1329 37.4098 85.0504 36.2908L85.0504 36.2499C85.0367 35.977 85.0229 35.7041 84.9954 35.4311C84.9404 34.6806 84.8716 33.9437 84.8028 33.1932C84.8032 33.1698 84.7986 33.1464 84.7891 33.125C86.6423 34.7995 88.3751 36.6006 89.9747 38.5151L90.0159 38.556C90.0235 38.5634 90.0283 38.5729 90.0297 38.5833C97.9258 48.0509 102.237 59.9593 102.216 72.2475Z" fill="#5D5FEF"/>
<path d="M86.2165 42.2831C86.2239 58.6065 81.7876 74.6283 73.377 88.6527C64.9665 102.677 52.8945 114.183 38.4389 121.951C38.421 121.972 38.3969 121.987 38.3701 121.992L38.3565 122.006C37.6419 122.388 36.9274 122.757 36.2129 123.125C31.7285 121.951 27.4216 120.189 23.4062 117.885C20.5013 116.223 17.7594 114.295 15.2165 112.126C15.6974 111.621 16.1646 111.116 16.6318 110.598L16.6454 110.584C16.6454 110.57 16.6593 110.557 16.673 110.543L16.6867 110.543C31.7231 93.9463 40.0268 72.4011 39.9916 50.0753C39.9938 40.458 38.4634 30.9009 35.457 21.7588L35.4433 21.7588C35.4433 21.7315 35.4296 21.7042 35.4296 21.6769L35.4157 21.6769C35.4079 21.655 35.4032 21.632 35.4021 21.6087C35.1273 20.7762 34.8387 19.9438 34.5364 19.1251L49.899 19.125C63.1547 19.1068 75.9379 24.0135 85.7355 32.8807C85.8455 33.9178 85.9279 34.9549 85.9966 36.0057C86.1478 38.08 86.2165 40.1679 86.2165 42.2831Z" fill="#9087E5"/>
<path d="M40 49.95C40 50.8643 39.9864 51.7786 39.9591 52.6792C39.9455 53.266 39.9182 53.8392 39.8909 54.426C39.7819 56.7731 39.5774 59.1067 39.2774 61.4266C39.2093 62.027 39.1275 62.6138 39.032 63.2006C38.9366 63.9238 38.8139 64.6335 38.6912 65.3567C38.5821 66.039 38.4594 66.7077 38.3231 67.39C38.2958 67.5538 38.2549 67.7175 38.2276 67.8813C38.1186 68.4408 37.9959 69.0139 37.8732 69.5734C37.2328 72.4818 36.4456 75.3557 35.5146 78.1843C35.3374 78.7438 35.1465 79.2897 34.9556 79.8219C34.939 79.8875 34.9162 79.9515 34.8874 80.0129C34.6966 80.5724 34.5057 81.1046 34.3012 81.6505C34.2467 81.8142 34.1785 81.9916 34.1103 82.169C33.8922 82.7558 33.6604 83.329 33.4287 83.9021C33.1696 84.5572 32.897 85.2122 32.6107 85.8536C32.3244 86.5222 32.0244 87.1909 31.7245 87.8596C31.4382 88.4737 31.1382 89.0877 30.8519 89.6882C30.5384 90.3296 30.2248 90.9573 29.8976 91.5714C29.5704 92.1855 29.2432 92.8132 28.9023 93.4273C28.5615 94.0414 28.2207 94.6555 27.8798 95.2559C27.539 95.8563 27.1709 96.4704 26.8028 97.0709C26.4347 97.6713 26.0666 98.2581 25.6848 98.8449C24.935 100.018 24.1579 101.178 23.3535 102.311C22.5491 103.444 21.7039 104.563 20.8586 105.668C19.577 107.292 18.2501 108.875 16.8776 110.417L16.864 110.417C16.8503 110.431 16.8504 110.431 16.8504 110.444C16.8504 110.448 16.849 110.451 16.8464 110.454C16.8438 110.456 16.8404 110.458 16.8367 110.458C16.3732 110.977 15.896 111.495 15.4188 112C13.2707 110.152 11.2738 108.135 9.44741 105.968C9.43356 105.942 9.41506 105.919 9.39288 105.9C1.37516 96.3821 -3.01538 84.3294 -2.99996 71.8797L-2.99996 19L34.5875 19C34.8874 19.8188 35.1737 20.6376 35.4328 21.47L35.4464 21.4836C35.4476 21.5069 35.4523 21.5299 35.46 21.5519L35.4737 21.5519L35.4737 21.5928C35.4729 21.6002 35.4735 21.6077 35.4759 21.6148C35.4783 21.6219 35.4823 21.6283 35.4873 21.6337L35.5009 21.6337C35.5131 21.6858 35.5314 21.7362 35.5555 21.7838L35.7191 22.3161C36.1826 23.7626 36.6053 25.2227 36.987 26.7102C37.2597 27.7064 37.5051 28.7298 37.7368 29.7533C38.1595 31.6092 38.5276 33.5061 38.8412 35.4302C38.9093 35.8942 38.9911 36.3445 39.0457 36.8085C39.2093 37.9412 39.3592 39.0738 39.4819 40.2201C39.5365 40.6431 39.5774 41.0798 39.6046 41.5029C39.6864 42.2943 39.741 43.0995 39.7955 43.891C39.9318 45.897 40 47.9167 40 49.95Z" fill="#C4D0FB"/>
</g>
<rect width="100" height="90" rx="24" fill="white"/>
<path d="M76.93 70.9454C76.93 70.9454 76.92 70.8354 76.91 70.7854H77C77 70.6454 76.98 70.5054 76.97 70.3654C76.96 70.2254 76.95 70.0854 76.93 69.9454C76.92 69.8754 76.92 69.8154 76.91 69.7454C76.89 69.6254 76.88 69.5154 76.86 69.3954C76.84 69.2954 76.83 69.2054 76.81 69.1054C76.79 68.9854 76.76 68.8454 76.74 68.7254C76.7 68.5554 76.67 68.3854 76.63 68.2254C76.6 68.1154 76.57 67.9954 76.54 67.8954C76.51 67.7754 76.48 67.6654 76.44 67.5454C76.4 67.3954 76.35 67.2554 76.3 67.1054C76.26 66.9854 76.22 66.8754 76.18 66.7554C76.13 66.5954 76.06 66.4354 76 66.2854C75.95 66.1754 75.91 66.0654 75.86 65.9654C75.81 65.8454 75.76 65.7154 75.7 65.5954C75.64 65.4754 75.58 65.3554 75.52 65.2254C75.46 65.1154 75.4 64.9954 75.33 64.8754C75.27 64.7554 75.2 64.6354 75.13 64.5254C75.06 64.3954 74.98 64.2654 74.9 64.1354C74.84 64.0454 74.78 63.9454 74.72 63.8554C74.72 63.8554 74.71 63.8454 74.7 63.8354C74.63 63.7254 74.55 63.6154 74.48 63.5054C74.4 63.3954 74.32 63.2854 74.24 63.1754C74.08 62.9654 73.91 62.7554 73.74 62.5454C73.66 62.4554 73.58 62.3654 73.5 62.2854C73.5 62.2654 73.47 62.2454 73.46 62.2254C73.37 62.1354 73.29 62.0354 73.2 61.9554C73.11 61.8554 73.02 61.7554 72.92 61.6654C72.73 61.4754 72.54 61.2954 72.34 61.1154C72.25 61.0454 72.16 60.9654 72.06 60.8854C72.05 60.8754 72.03 60.8654 72.01 60.8454C71.92 60.7654 71.82 60.6854 71.72 60.6054C71.62 60.5254 71.51 60.4454 71.41 60.3654C71.4 60.3554 71.38 60.3554 71.37 60.3354C71.31 60.2954 71.26 60.2554 71.2 60.2254C71.2 60.2254 71.12 60.1554 71.07 60.1254C70.97 60.0554 70.85 59.9854 70.74 59.9054C70.69 59.8754 70.63 59.8354 70.58 59.8054C70.48 59.7354 70.38 59.6754 70.28 59.6154C70.28 59.6154 70.27 59.6054 70.26 59.6054C70.15 59.5354 70.04 59.4754 69.93 59.4154C69.76 59.3154 69.58 59.2154 69.4 59.1354C69.26 59.0554 69.11 58.9954 68.96 58.9254C68.94 58.9154 68.93 58.9054 68.91 58.9054C68.79 58.8454 68.67 58.7954 68.55 58.7454C68.52 58.7254 68.48 58.7154 68.45 58.6954C68.3 58.6454 68.16 58.5854 68.01 58.5354C66.52 57.9854 64.91 57.6854 63.23 57.6854H49.39C42.19 57.6854 36.35 51.9654 36.12 44.8154V44.7554C36.13 44.6254 36.13 44.5054 36.14 44.3754C36.14 44.3454 36.14 44.3254 36.15 44.2954L36.17 44.1154C36.17 44.1154 36.17 44.0554 36.18 44.0254V43.9354C36.2 43.7854 36.22 43.6354 36.24 43.4954C36.24 43.4154 36.26 43.3354 36.27 43.2554C36.3 43.1054 36.33 42.9754 36.36 42.8254C36.38 42.6954 36.41 42.5754 36.44 42.4554C36.45 42.3954 36.46 42.3554 36.47 42.3054C36.5 42.1754 36.53 42.0354 36.57 41.9054C36.61 41.7354 36.66 41.5754 36.7 41.4254C36.75 41.2554 36.81 41.0954 36.87 40.9354C36.93 40.7654 36.99 40.6054 37.06 40.4354C37.1 40.3154 37.15 40.2054 37.2 40.0954C37.2 40.0954 37.2 40.0954 37.21 40.0954V40.0754C37.21 40.0754 37.24 40.0054 37.26 39.9754C37.31 39.8654 37.35 39.7654 37.4 39.6654C37.44 39.5954 37.48 39.5154 37.52 39.4354C37.56 39.3554 37.6 39.2754 37.64 39.2054C37.68 39.1254 37.72 39.0454 37.76 38.9754C37.8 38.8954 37.84 38.8254 37.89 38.7554C37.85 38.8254 37.81 38.8954 37.77 38.9754C37.81 38.8954 37.86 38.8254 37.9 38.7554C37.93 38.6954 37.96 38.6254 38 38.5654C38.03 38.5054 38.07 38.4354 38.11 38.3754L38.13 38.3454C38.13 38.3454 38.14 38.3254 38.15 38.3154C38.22 38.2054 38.28 38.0954 38.35 37.9954C38.36 37.9754 38.37 37.9654 38.38 37.9554C38.39 37.9454 38.4 37.9354 38.4 37.9254C38.41 37.9154 38.42 37.9154 38.42 37.9054C38.49 37.7954 38.57 37.6954 38.64 37.5854C38.69 37.5154 38.74 37.4454 38.8 37.3754C38.86 37.3054 38.91 37.2354 38.97 37.1654C39.06 37.0554 39.15 36.9354 39.25 36.8254C39.26 36.8154 39.26 36.8054 39.27 36.7954C39.32 36.7354 39.37 36.6754 39.43 36.6154C39.51 36.5254 39.59 36.4354 39.67 36.3554V36.3354C39.67 36.3354 39.73 36.2854 39.76 36.2554C39.78 36.2254 39.81 36.2054 39.84 36.1754C39.89 36.1254 39.94 36.0754 39.99 36.0254H39.98C40.03 35.9654 40.07 35.9254 40.12 35.8854C40.19 35.8154 40.26 35.7454 40.33 35.6854C40.37 35.6454 40.42 35.6054 40.46 35.5654H40.47C40.47 35.5654 40.56 35.4754 40.61 35.4354C40.65 35.3954 40.7 35.3554 40.74 35.3154H40.76L40.81 35.2654L40.82 35.2554C40.91 35.1654 41.01 35.0954 41.11 35.0154L41.14 34.9854C41.14 34.9854 41.21 34.9354 41.24 34.9054C41.33 34.8354 41.41 34.7754 41.49 34.7154C41.54 34.6854 41.58 34.6454 41.63 34.6154C41.66 34.5954 41.7 34.5654 41.73 34.5454C41.78 34.5154 41.82 34.4754 41.87 34.4454C41.89 34.4354 41.91 34.4154 41.93 34.4054C41.98 34.3754 42.03 34.3354 42.07 34.3054H42.08C42.18 34.2454 42.26 34.1954 42.35 34.1354C42.38 34.1154 42.41 34.0954 42.44 34.0754H42.45C42.55 34.0054 42.65 33.9454 42.75 33.8954L42.93 33.7954C43.35 33.5654 43.77 33.3554 44.22 33.1654H44.23C44.23 33.1654 44.23 33.1654 44.25 33.1654C44.25 33.1654 44.26 33.1554 44.27 33.1554H44.28C44.6 33.0154 44.92 32.8954 45.25 32.7854C45.26 32.7754 45.27 32.7754 45.27 32.7754C46.74 32.4054 48.27 32.1854 49.84 32.1454C49.99 32.1454 50.13 32.1554 50.27 32.1654C50.39 32.1654 50.52 32.1854 50.64 32.1954C50.98 32.2254 51.31 32.2654 51.64 32.3254C51.74 32.3454 51.84 32.3554 51.93 32.3854C52.05 32.3954 52.16 32.4254 52.27 32.4454L52.42 32.4854C52.53 32.5054 52.64 32.5354 52.74 32.5654C52.87 32.5954 53.01 32.6354 53.14 32.6754C53.35 32.7354 53.55 32.7954 53.76 32.8754C53.83 32.8954 53.91 32.9254 53.97 32.9454C54.07 32.9854 54.17 33.0254 54.27 33.0554C54.33 33.0854 54.39 33.1054 54.45 33.1354C54.51 33.1654 54.58 33.1854 54.64 33.2154C54.72 33.2454 54.78 33.2754 54.85 33.3054C54.94 33.3454 55.04 33.3954 55.13 33.4354C55.32 33.5254 55.51 33.6254 55.7 33.7254C55.79 33.7754 55.88 33.8254 55.98 33.8854C56.04 33.9154 56.1 33.9554 56.17 33.9954C56.56 34.2254 56.93 34.4754 57.29 34.7354C57.37 34.7954 57.46 34.8654 57.53 34.9254C57.62 34.9954 57.71 35.0654 57.79 35.1354C57.92 35.2354 58.05 35.3454 58.18 35.4654C58.22 35.4954 58.25 35.5254 58.29 35.5554C58.36 35.6154 58.42 35.6754 58.48 35.7354C58.84 36.0754 59.17 36.4254 59.49 36.7954C59.54 36.8554 59.59 36.9154 59.64 36.9754C59.75 37.1154 59.86 37.2454 59.97 37.3954C60.07 37.5254 60.18 37.6754 60.28 37.8154C60.33 37.8854 60.38 37.9554 60.42 38.0254C60.68 38.4054 60.92 38.8054 61.13 39.2054L61.27 39.4854C61.3 39.5354 61.32 39.5854 61.35 39.6354C61.38 39.7154 61.42 39.7954 61.46 39.8754C61.53 40.0354 61.6 40.1954 61.67 40.3554C61.71 40.4554 61.75 40.5454 61.78 40.6454C61.82 40.7454 61.86 40.8354 61.89 40.9454C61.98 41.1854 62.06 41.4354 62.14 41.6854C62.16 41.7554 62.17 41.8154 62.19 41.8754C62.25 42.0754 62.3 42.2854 62.34 42.4854C62.37 42.5954 62.39 42.6954 62.41 42.7954C62.42 42.8554 62.43 42.9054 62.44 42.9654C62.45 43.0354 62.47 43.1154 62.48 43.1854C62.52 43.3954 62.55 43.6154 62.57 43.8354C62.59 43.9154 62.59 44.0054 62.6 44.0854C62.61 44.1754 62.62 44.2554 62.62 44.3454C62.63 44.4054 62.63 44.4754 62.64 44.5354C62.65 44.7154 62.66 44.8954 62.66 45.0854H62.67V45.4154C62.67 50.0254 60.33 54.0854 56.77 56.4654H63.97C65.65 56.4654 67.26 56.7654 68.75 57.3154C68.89 57.3754 69.04 57.4254 69.18 57.4854C69.22 57.4954 69.25 57.5154 69.29 57.5354C69.41 57.5854 69.53 57.6254 69.65 57.6854C69.66 57.6854 69.68 57.7054 69.7 57.7054C69.84 57.7754 69.99 57.8454 70.13 57.9154C70.31 58.0054 70.49 58.1054 70.66 58.2054C70.78 58.2654 70.89 58.3254 71 58.3954C71.01 58.3954 71.02 58.3954 71.02 58.4054C71.12 58.4654 71.22 58.5254 71.31 58.5854C71.37 58.6254 71.42 58.6554 71.48 58.6954C71.59 58.7654 71.7 58.8354 71.81 58.9154C71.87 58.9554 71.93 58.9954 71.99 59.0454C73.19 57.0554 74.13 54.8954 74.78 52.6054C75.43 50.3254 75.77 47.9054 75.77 45.4154C75.78 30.8254 63.97 19.0054 49.39 19.0054C34.81 19.0054 23 30.8254 23 45.3954C23 55.1854 28.32 63.7254 36.23 68.2754C40.1 70.5154 44.6 71.7854 49.39 71.7854H77C77 71.6454 76.98 71.5054 76.97 71.3654C76.96 71.2254 76.95 71.0854 76.93 70.9454ZM36.1 45.3954C36.1 45.2454 36.1 45.1054 36.11 44.9554V45.3954C36.11 46.0154 36.15 46.6254 36.23 47.2154C36.14 46.6254 36.1 46.0154 36.1 45.3954Z" fill="#5D5FEF"/>
</svg>
