<svg width="100" height="101" viewBox="0 0 100 101" fill="none" xmlns="http://www.w3.org/2000/svg">
<path d="M99.042 54.7603C98.3485 62.0224 96.0864 69.0438 92.4138 75.332C88.7415 81.6199 83.7477 87.0221 77.7832 91.1594C71.8186 95.2969 65.0278 98.0693 57.887 99.2824C50.7461 100.495 43.4284 100.119 36.4471 98.1808C29.4657 96.2423 22.9901 92.7883 17.4741 88.0611C11.9584 83.3337 7.53603 77.4478 4.51762 70.816C1.49901 64.1845 -0.04263 56.9676 0.000896671 49.6719C0.0444233 42.3762 1.67186 35.1786 4.76916 28.5839C13.4661 10.0986 32.9652 -1.82585 54.3456 0.229721C81.6356 2.85241 101.647 27.2684 99.042 54.7603Z" fill="#9087E5"/>
<path d="M81.458 88.383L79.7337 89.7723C77.9482 91.1446 76.0732 92.3942 74.1212 93.5124C68.3399 96.8136 61.9597 98.9119 55.3585 99.6833C48.7575 100.455 42.0699 99.883 35.6922 98.0024C29.3143 96.1218 23.3763 92.9708 18.2295 88.7355C13.0828 84.5004 8.8323 79.2674 5.72998 73.3468C13.6108 67.5111 26.8048 60.539 43.6819 61.9621C71.9114 64.355 81.458 88.383 81.458 88.383Z" fill="#C4D0FB"/>
<path d="M47.823 73.8172C47.5053 73.818 47.188 73.799 46.8729 73.7603C44.7788 73.5089 42.8697 72.4301 41.5654 70.7608C40.2608 69.0917 39.668 66.9689 39.917 64.8591L43.6837 32.9377C43.9334 30.8278 45.0048 28.9042 46.6624 27.5901C47.4831 26.9395 48.4229 26.4582 49.4282 26.1733C50.4337 25.8887 51.4848 25.8063 52.5219 25.9309C53.5588 26.0555 54.5614 26.3846 55.4721 26.8996C56.3828 27.4145 57.1839 28.1051 57.8297 28.9318C58.4755 29.7587 58.9534 30.7057 59.2359 31.7185C59.5186 32.7313 59.6005 33.7905 59.4768 34.8352L55.7101 66.7566C55.4792 68.7015 54.5495 70.4935 53.0962 71.7945C51.6428 73.0955 49.767 73.8151 47.823 73.8172V73.8172Z" fill="#FFCCD7"/>
<path d="M54.4795 57.5095L56.1661 57.6992C58.1274 57.9221 60.1135 57.7066 61.9828 57.0682C63.8519 56.4298 65.5587 55.3843 66.9813 54.0057C68.4038 52.6273 69.5075 50.95 70.2133 49.0928C70.9192 47.2359 71.2103 45.245 71.0657 43.2618L70.35 33.4372C70.1185 30.2642 68.7851 27.2747 66.5835 24.9938C64.3818 22.7128 61.4527 21.2862 58.3111 20.9646V20.9646C54.7668 20.6024 51.225 21.6734 48.4644 23.9422C45.704 26.2109 43.9513 29.4913 43.5915 33.0619L42.6206 42.6946C42.2631 46.2397 43.308 49.7835 45.5283 52.5571C47.7485 55.3308 50.9649 57.1102 54.4795 57.5095Z" fill="#FFCCD7"/>
<path d="M46.6665 47.0668L46.6682 47.0656C48.9914 45.6258 49.7161 42.5612 48.2868 40.2206L46.8186 37.8164C45.3894 35.476 42.3475 34.7459 40.0245 36.1856L40.0226 36.1867C37.6996 37.6266 36.9749 40.6912 38.4042 43.0316L39.8723 45.4361C41.3016 47.7765 44.3432 48.5066 46.6665 47.0668Z" fill="#FFCCD7"/>
<path d="M40.5803 40.0742L44.5396 44.2901" stroke="#001833" stroke-linecap="square"/>
<path d="M64.1223 34.6851L64.4007 42.5805L61.6133 42.6944" stroke="#001833" stroke-linecap="square"/>
<path d="M55.8189 45.1467C55.5885 45.5757 55.4443 46.0465 55.3943 46.5318C55.3445 47.0172 55.3899 47.5075 55.5283 47.9752C55.6664 48.4428 55.8949 48.8783 56.2002 49.257C56.5055 49.6358 56.882 49.9502 57.3078 50.1823C57.7339 50.4144 58.201 50.5599 58.6827 50.6101C59.1644 50.6603 59.6512 50.6145 60.1153 50.4752C60.5794 50.336 61.0118 50.1058 61.3876 49.7982C61.7637 49.4906 62.0757 49.1115 62.3061 48.6823C63.275 46.8755 61.3895 46.0511 59.5857 45.075C57.7818 44.0989 56.7878 43.342 55.8189 45.1467Z" fill="#001833"/>
<path d="M47.7039 43.7195L51.4706 29.4654L52.3641 26.0922C53.2037 26.9987 54.1866 27.759 55.2729 28.3417C59.2154 30.4795 71.1015 29.6278 72.7484 21.2305C74.0919 14.3828 66.8744 18.319 63.1788 17.891C57.3718 17.2163 53.3435 13.7735 45.3915 18.1018C35.8805 23.2861 40.3859 35.9947 40.3859 35.9947C40.3859 35.9947 44.5712 34.344 47.7039 43.7195Z" fill="#001833"/>
<path opacity="0.4" d="M56.587 57.7414L51.55 57.2798L56.1496 61.8013L56.587 57.7414Z" fill="black"/>
<path d="M58.7551 38.9498C59.5189 38.9498 60.1383 38.326 60.1383 37.5564C60.1383 36.7868 59.5189 36.1631 58.7551 36.1631C57.991 36.1631 57.3718 36.7868 57.3718 37.5564C57.3718 38.326 57.991 38.9498 58.7551 38.9498Z" fill="#001833"/>
<path d="M67.0063 38.9498C67.7703 38.9498 68.3895 38.326 68.3895 37.5564C68.3895 36.7868 67.7703 36.1631 67.0063 36.1631C66.2423 36.1631 65.623 36.7868 65.623 37.5564C65.623 38.326 66.2423 38.9498 67.0063 38.9498Z" fill="#001833"/>
</svg>
