<svg width="686" height="548" viewBox="0 0 686 548" fill="none" xmlns="http://www.w3.org/2000/svg">
<g id="Illustration">
<g id="Person / Man / 6">
<g id="Man / Head / 1">
<g id="Group 30">
<path id="Fill 1" fill-rule="evenodd" clip-rule="evenodd" d="M214.341 82.8158C214.341 90.3264 209.436 96.4148 203.384 96.4148C197.333 96.4148 192.427 90.3264 192.427 82.8158C192.427 75.3051 197.333 69.2168 203.384 69.2168C209.436 69.2168 214.341 75.3051 214.341 82.8158Z" fill="#19141E"/>
<g id="Face color">
<path id="Face" d="M188.412 136.689L187.954 121.07C187.954 121.07 189.599 121.199 192.031 121.329C204.261 121.984 213.041 113.442 213.265 101.196C213.393 94.1508 212.778 86.5048 210.338 80.7461L210.216 80.1948L169.62 75.5098L167.344 98.4938C165.976 94.5142 154.69 90.0016 151.74 95.7004C145.347 108.049 168.206 116.363 168.206 116.363L165.885 136.876" fill="#FFCCD7"/>
<path id="Path" d="M156.197 100.525L164.267 106.484" stroke="#0C092A"/>
</g>
<path id="Fill 5" opacity="0.398926" fill-rule="evenodd" clip-rule="evenodd" d="M187.954 121.069L174.982 118.325L187.892 126.929L187.954 121.069Z" fill="#0C092A"/>
<path id="Path_2" d="M198.498 96.6559L201.539 107.347L197.171 108.532" stroke="#001833" stroke-linecap="square"/>
<path id="Fill 9" fill-rule="evenodd" clip-rule="evenodd" d="M193.543 98.6178C193.811 100.074 192.83 101.468 191.355 101.731C189.879 101.994 188.466 101.027 188.199 99.5716C187.932 98.1155 188.912 96.7217 190.388 96.4582C191.864 96.1951 193.276 97.1617 193.543 98.6178Z" fill="#001833"/>
<path id="Fill 11" fill-rule="evenodd" clip-rule="evenodd" d="M208.607 98.6178C208.874 100.074 207.894 101.468 206.418 101.731C204.942 101.994 203.529 101.027 203.263 99.5716C202.995 98.1155 203.975 96.7217 205.451 96.4582C206.927 96.1951 208.34 97.1617 208.607 98.6178Z" fill="#001833"/>
<path id="Hair" d="M170.358 102.416C166.509 95.9167 160.94 93.9345 158.44 93.3532C157.443 90.5102 156.683 87.213 156.149 83.7062C154.717 74.3209 161.634 65.758 167.22 63.2992C172.875 60.8108 182.626 57.3626 196.899 62.0433C206.495 65.1924 212.628 57.6532 218.275 60.8731C227.923 66.3769 218.949 90.4724 194.483 84.3513C176.982 79.9725 176.532 81.0709 176.382 84.2537C175.897 94.5418 174.271 100.594 170.358 102.416Z" fill="#001833"/>
<g id="Group 21">
<path id="Stroke 20" d="M190.497 110.456C190.497 110.456 192.412 114.523 196.55 114.427" stroke="#001833"/>
</g>
<path id="Stroke 22" fill-rule="evenodd" clip-rule="evenodd" d="M197.022 98.7464C197.022 102.131 194.24 104.875 190.809 104.875C187.378 104.875 184.596 102.131 184.596 98.7464C184.596 95.3614 187.378 92.6172 190.809 92.6172C194.24 92.6172 197.022 95.3614 197.022 98.7464Z" stroke="#001833"/>
<path id="Stroke 24" fill-rule="evenodd" clip-rule="evenodd" d="M212.665 98.7464C212.665 102.131 209.884 104.875 206.453 104.875C203.022 104.875 200.24 102.131 200.24 98.7464C200.24 95.3614 203.022 92.6172 206.453 92.6172C209.884 92.6172 212.665 95.3614 212.665 98.7464Z" stroke="#001833"/>
<path id="Stroke 26" d="M199.734 99.0325H197.047" stroke="#001833" stroke-width="4"/>
<path id="Stroke 28" d="M184.596 98.7483H169.249" stroke="#001833"/>
</g>
</g>
<g id="Man / Legs / 1">
<g id="Group 23">
<g id="Shoes">
<path id="Shoes_2" fill-rule="evenodd" clip-rule="evenodd" d="M204.389 487.733L204.539 474.924L187.773 466.604L185.34 503.224H243.427C233.544 492.257 204.389 487.733 204.389 487.733ZM129.982 488.233L130.133 473.845L119.203 482.612L110.407 487.437L107.504 503.224H147.26C142.262 489.812 129.982 488.233 129.982 488.233Z" fill="#0D0B6D"/>
</g>
<g id="Leg skin">
<path id="Skin" fill-rule="evenodd" clip-rule="evenodd" d="M130.133 473.845L113.367 468.882L110.406 487.437L129.982 488.233L130.133 473.845ZM204.539 474.924L187.774 469.961L186.422 486.938L204.389 487.733L204.539 474.924Z" fill="#FFCCD7"/>
</g>
<g id="Pants">
<path id="Pants_2" d="M206.942 470.724L206.555 482.613H184.44L184.828 470.689C182.35 469.71 180.58 467.355 180.52 464.573L176.96 286.504L138.496 466.28C137.954 468.809 136.05 470.773 133.632 471.496L132.186 482.613H108.998L110.993 470.34C109.063 468.865 107.944 466.44 108.328 463.85L143.741 225.579L175.742 225.579L175.74 225.488H214.5L212.177 464.24C212.145 467.379 209.927 470.006 206.942 470.724Z" fill="#09074A"/>
</g>
<path id="Fill 15" opacity="0.197824" fill-rule="evenodd" clip-rule="evenodd" d="M176.763 289.325L183.55 259.688L178.444 349.54L176.763 289.325Z" fill="#0C092A"/>
<g id="Pants line">
<path id="Pants line_2" d="M152.02 225.806L155.735 226.403L115.229 469.217L111.503 468.604L152.02 225.806Z" fill="#EFEFEF"/>
</g>
</g>
</g>
<g id="Man / Body / 5">
<g id="Group 18">
<g id="Skin color">
<path id="Skin_2" fill-rule="evenodd" clip-rule="evenodd" d="M267.738 143.906L267.472 139.385C267.472 139.385 267.478 136.24 267.893 132.844C267.997 131.992 268.226 131.101 268.47 130.15L268.47 130.149C269.199 127.308 270.067 123.928 268.17 119.438C265.636 113.448 271.693 117.583 273.034 120.432C273.552 121.534 273.703 123.198 273.853 124.849V124.849C274.026 126.758 274.197 128.65 274.934 129.63C276.094 129.01 276.866 128.203 276.866 128.203L289.92 111.63C290.341 111.073 291.118 110.906 291.74 111.235L292.443 111.61C293.183 112.005 293.417 112.932 292.943 113.61C292.038 114.91 290.457 117.105 288.804 119.399C285.806 123.561 282.572 128.049 282.709 128.12L283.055 128.531L298.388 112.709C298.867 112.182 299.67 112.089 300.261 112.49L301.182 113.115C301.852 113.568 301.996 114.474 301.496 115.099C299.861 117.165 295.814 121.64 292.444 125.366L292.444 125.366L292.444 125.366C289.529 128.59 287.121 131.252 287.222 131.307L287.68 131.74L301.953 119.401C302.459 118.849 303.321 118.787 303.906 119.25L304.604 119.807C305.216 120.292 305.306 121.172 304.806 121.766L291.325 134.172L291.714 134.771L303.417 126.724C303.954 126.255 304.763 126.255 305.306 126.719L305.631 127.005C306.206 127.505 306.269 128.365 305.769 128.943C304.972 129.865 303.396 131.077 301.516 132.522L301.516 132.522L301.516 132.522C299.353 134.185 296.789 136.156 294.55 138.349C293.318 139.557 292.324 140.741 291.317 141.941L291.317 141.941C289.671 143.902 287.991 145.903 285.179 148.12C283.5 149.447 281.981 150.22 280.535 150.954C280.33 151.058 280.128 151.162 279.926 151.265L267.738 143.906ZM162.518 133.534C162.518 133.534 171.537 133.517 178.047 133.495C184.555 133.473 192.741 136.167 192.741 136.167C192.741 136.167 197 145.581 182.205 144.728C167.41 143.875 162.518 133.534 162.518 133.534ZM113.187 171.631C113.187 171.631 98.7488 192.955 99.0761 204.814C99.4625 218.796 144.883 253.152 144.883 253.152L156.654 243.717L128.06 204.493L138.459 182.699L113.187 171.631Z" fill="#FFCCD7"/>
</g>
<g id="Sweater color">
<path id="Sweater" d="M153.234 226.62L160.266 235.903L139.087 254.065C139.087 254.065 100.222 226.04 99.0221 204.066C98.2579 190.07 110.703 170.092 110.703 170.092C110.703 170.092 126.324 145.529 144.382 137.24C148.087 135.538 157.072 134.119 162.518 133.534C164.188 133.354 163.19 133.994 163.763 135.078C164.361 136.209 166.184 137.886 167.445 139.139C170.069 141.748 175.241 143.723 178.019 144.127C180.137 144.435 184.228 144.914 186.197 144.653C188.165 144.393 190.305 143.519 190.877 143C191.448 142.48 192.299 141.831 192.741 140.83C193.182 139.829 193.159 140.115 193.159 139.192C193.159 138.269 193.111 138.405 193.019 137.966C192.927 137.526 192.927 137.262 192.873 137.035C192.633 136.03 192.741 136.167 192.741 136.167C203.4 139.334 208.8 140.506 212.683 145.114L242.36 165.605L262.666 139.537L288.866 156.844C288.866 156.844 265.668 199.365 248.856 204.066C235.313 207.853 221.594 196.076 216.77 191.352L222.501 219.977C223.42 224.919 219.021 226.789 215.102 226.614L153.234 226.62Z" fill="#9087E5"/>
</g>
<path id="Fill 9_2" opacity="0.201242" fill-rule="evenodd" clip-rule="evenodd" d="M216.68 191.369L213.133 177.578L222.71 196.425L216.68 191.369Z" fill="#0C092A"/>
<path id="Stroke 16" opacity="0.200591" d="M150.604 223.296L134.065 200.22L154.043 170.412" stroke="#0C092A" stroke-width="5"/>
</g>
</g>
</g>
<g id="Person / Man / 3">
<g id="Man / Head / 1_2">
<g id="Group 21_2">
<g id="Face color_2">
<path id="Face_2" d="M497.84 145.564L498.295 130.181C498.295 130.181 496.779 130.299 494.51 130.422C482.201 131.091 473.394 122.483 473.425 110.156C473.441 103.628 474.101 96.3709 476.181 89.9247L516.507 85.3105L519.376 107.994C520.735 104.074 531.337 99.583 534.268 105.196C540.618 117.357 517.911 125.546 517.911 125.546L520.217 145.749" fill="#FFCCD7"/>
<path id="Path_3" d="M529.462 110.457L521.391 114.429" stroke="#0C092A" stroke-linecap="square"/>
</g>
<path id="Path_4" d="M488.595 106.535L487.108 113.656L490.299 114.265" stroke="#001833" stroke-linecap="square"/>
<path id="Fill 4" opacity="0.399344" fill-rule="evenodd" clip-rule="evenodd" d="M498.295 130.18L511.181 127.478L498.357 135.952L498.295 130.18Z" fill="#0C092A"/>
<path id="Fill 8" fill-rule="evenodd" clip-rule="evenodd" d="M494.761 106.083C494.495 107.517 495.469 108.889 496.935 109.148C498.401 109.408 499.804 108.455 500.069 107.022C500.334 105.588 499.361 104.215 497.895 103.956C496.429 103.697 495.025 104.648 494.761 106.083Z" fill="#001833"/>
<path id="Fill 10" fill-rule="evenodd" clip-rule="evenodd" d="M478.738 106.083C478.473 107.517 479.446 108.889 480.912 109.148C482.378 109.408 483.781 108.455 484.047 107.022C484.312 105.588 483.338 104.215 481.872 103.956C480.406 103.697 479.003 104.648 478.738 106.083Z" fill="#001833"/>
<g id="Group 15">
<path id="Stroke 14" d="M495.162 118.401C495.162 118.401 492.454 122.717 487.091 122.352" stroke="#001833"/>
</g>
<path id="Hair_2" d="M526.998 103.145C528.789 96.6314 535.269 72.5873 534.505 68.4827C533.622 63.7257 530.236 57.886 512.841 51.761C498.103 46.5715 489.79 50.3293 487.271 53.5267C483.439 58.392 476.182 89.925 476.182 89.925C476.182 89.925 482.187 94.1053 503.483 93.3843C503.483 93.3843 500.535 105.925 512.62 105.205C512.62 105.205 511.325 109.428 517.173 110.756C520.382 105.875 524.641 103.903 526.998 103.145Z" fill="#001833"/>
</g>
</g>
<g id="Man / Legs / 1_2">
<g id="Group 20">
<g id="Shoes_3">
<path id="Shoes_4" fill-rule="evenodd" clip-rule="evenodd" d="M603.892 451.585L587.691 436.957L593.319 422.16L627.991 447.51L599.905 495.785C599.905 495.785 599.002 483.789 600.471 470.499C601.485 461.319 603.892 451.585 603.892 451.585ZM447.788 483.543L451.488 471.799L467.153 472.614L454.115 504.867L404.035 476.298C418.897 471.868 447.788 483.543 447.788 483.543Z" fill="#0D0B6D"/>
</g>
<g id="Skin legs">
<path id="Skin_3" fill-rule="evenodd" clip-rule="evenodd" d="M591.775 440.685L593.556 422.146L613.512 437.017L603.892 451.586L591.775 440.685ZM450.836 473.784L466.324 475.157L460.606 488.808L447.788 483.543L450.836 473.784Z" fill="#FFCCD7"/>
</g>
<g id="Pants_3">
<path id="Pants_4" d="M480.183 286.871L436.979 477.068L448.879 480.057H448.884L462.737 483.542L462.807 483.558L467.602 484.763C467.602 484.763 489.613 416.394 508.991 355.401C513.706 362.961 519.017 370.432 524.994 377.699C567.458 429.327 593.439 451.395 593.439 451.395L597.303 445.661L597.314 445.646L606.601 431.867L613.317 421.903C613.317 421.903 555.169 367.865 529.007 291.847C533.605 277.047 536.793 266.482 537.612 263.101C542.301 243.824 542.396 234.991 542.396 234.287H492.125L471.966 234.287C472.7 246.85 474.728 265.532 480.183 286.87L480.183 286.871Z" fill="#B9B2F0"/>
</g>
<g id="Overlay">
<path id="Mask" fill-rule="evenodd" clip-rule="evenodd" d="M436.979 477.068L448.879 480.057H448.884L462.737 483.542L462.807 483.558L467.602 484.763C467.602 484.763 489.613 416.394 508.991 355.401C516.554 331.59 523.712 308.907 529.006 291.847C533.605 277.047 536.793 266.482 537.612 263.101C542.301 243.824 542.396 234.991 542.396 234.287H492.125L480.183 286.87L436.979 477.068Z" fill="#B9B2F0"/>
</g>
</g>
</g>
<g id="Man / Body / 5_2">
<g id="Group 25">
<g id="Hands">
<path id="Mask_2" fill-rule="evenodd" clip-rule="evenodd" d="M454.94 245.254C454.94 245.254 462.108 246.112 463.473 249.165C467.375 257.899 459.289 273.513 459.289 273.513C459.289 273.513 462.715 271.524 463.397 273.264C463.701 274.038 464.388 280.223 451.551 280.64C450.188 280.684 446.909 278.046 446.909 278.046C446.909 278.046 449.3 282.39 445.639 283.244C445.639 283.244 439.74 274.832 439.65 272.96C439.56 271.088 441.453 261.613 442.477 259.7C443.501 257.786 454.94 245.254 454.94 245.254ZM551.883 260.49C553.126 256.994 554.228 255.14 554.228 255.14L572.946 256.005C574.847 261.161 575.052 262.931 575.516 266.923C575.537 267.103 575.559 267.288 575.581 267.477C576.006 271.114 576.035 274.77 574.59 279.636C573.662 282.762 572.671 285.421 572.155 285.309C570.854 285.026 570.805 283.433 570.805 283.433L571.418 280.473L571.696 277.582C571.696 277.582 567.078 290.38 566.686 290.309C565.303 290.06 565.082 287.817 565.082 287.817C565.082 287.817 563.635 292.234 562.907 292.074C561.054 291.667 561.23 289.621 561.23 289.621C561.23 289.621 560.645 290.11 560.195 289.986C558.518 289.524 558.568 286.688 558.597 285.025C558.6 284.892 558.602 284.766 558.603 284.65C558.603 284.65 559.346 279.417 559.194 277.805C558.421 269.589 557.089 267.635 556.358 266.563C556.289 266.462 556.225 266.368 556.168 266.278C555.021 267.023 554.596 268.298 554.145 269.653C553.817 270.638 553.476 271.664 552.832 272.558C550.875 275.279 545.416 277.85 548.468 271.616C550.163 268.155 550.584 266.026 550.975 264.049C551.204 262.89 551.423 261.783 551.883 260.49Z" fill="#FFCCD7"/>
</g>
<path id="Stroke 4" opacity="0.150646" d="M456.667 256.537C456.667 256.537 454.866 263.013 448.684 265.031C446.522 265.736 447.062 274.066 441.764 273.069" stroke="#0C092A" stroke-width="3"/>
<g id="Shirt">
<path id="Shirt_2" fill-rule="evenodd" clip-rule="evenodd" d="M522.02 145.926L519.637 136.119L509.281 136.749L502.16 145.374L497.53 137.458L494.225 137.661L493.198 146.817C478.122 152.476 475.492 158.012 472.193 164.957C471.838 165.704 471.476 166.467 471.089 167.248C466.738 176.041 472.05 237.073 472.05 237.073L537.353 234.128C537.353 234.128 528.504 146.589 522.708 145.994C522.479 145.971 522.249 145.948 522.02 145.926Z" fill="#EFEFEF"/>
</g>
<path id="Stroke 8" d="M473.375 237.177L470.312 188.909" stroke="#12173A" stroke-width="5"/>
<g id="Coat">
<path id="Coat_2" fill-rule="evenodd" clip-rule="evenodd" d="M551.618 273.869L556.267 294.597L521.316 297.401C521.316 297.401 518.314 198.196 518.609 169.03C518.744 155.674 522.707 145.999 522.707 145.999C522.707 145.999 538.241 150.473 541.763 152.762C550.059 158.155 568.093 183.988 571.302 197.644C576.342 219.082 575.82 256.139 575.82 256.139L549.349 254.915L541.722 214.644L540.559 224.953L550.176 267.59C549.845 268.653 549.569 269.455 549.349 269.998C548.244 272.714 547.611 274.295 547.745 274.885C547.868 275.434 548.412 275.764 549.745 275.095C550.099 274.917 550.723 274.509 551.618 273.869ZM470.099 254.92L466.496 262.274L443.335 249.659L462.228 203.045C462.228 203.045 467.143 166.941 470.105 162.12C475.832 152.799 493.085 146.863 493.085 146.863C493.085 146.863 493.08 146.869 493.08 146.874C492.908 147.306 492.77 149.807 492.46 155.414C492.251 159.204 491.963 164.413 491.534 171.361C490.585 186.726 481.579 297.003 481.579 297.003L469.12 295.56L470.099 254.92Z" fill="#09074A"/>
</g>
<g id="Lapel">
<path id="Shape" fill-rule="evenodd" clip-rule="evenodd" d="M534.77 176.339L519.051 209.021C519.051 209.021 518.588 173.071 518.802 164.421C518.953 158.334 522.707 145.999 522.707 145.999L528.947 151.058C532.908 154.27 533.927 159.807 531.36 164.17L531.278 164.31L532.542 165.432C535.655 168.193 536.558 172.62 534.77 176.339ZM493.085 146.864L488.693 208.712L477.234 178.27C475.569 173.848 476.91 168.878 480.588 165.836L481.076 165.432L480.857 164.327C480.035 160.176 481.623 155.919 484.986 153.262L493.085 146.864Z" fill="#0C092A"/>
</g>
<path id="Stroke 23" opacity="0.197498" d="M541.847 215.304L540.309 207.784L532.527 193.721" stroke="#0C092A" stroke-width="5"/>
</g>
</g>
</g>
</g>
</svg>
